<svg xmlns="http://www.w3.org/2000/svg" viewBox="0 0 350 276" width="350" height="276">
	<defs>
		<linearGradient id="grd1" gradientUnits="userSpaceOnUse"  x1="16.269" y1="58991.838" x2="2430.302" y2="58991.838">
			<stop offset="0" stop-color="#f1aac2"  />
			<stop offset="100" stop-color="#e5638f"  />
		</linearGradient>
		<linearGradient id="grd2" gradientUnits="userSpaceOnUse"  x1="2591.866" y1="58922.201" x2="177.833" y2="58922.201">
			<stop offset="0" stop-color="#f1aac2"  />
			<stop offset="100" stop-color="#e5638f"  />
		</linearGradient>
		<linearGradient id="grd3" gradientUnits="userSpaceOnUse"  x1="2586.593" y1="1246.775" x2="8225.002" y2="5640.667">
			<stop offset="0" stop-color="#ffceae"  />
			<stop offset="100" stop-color="#ffb280"  />
		</linearGradient>
		<linearGradient id="grd4" gradientUnits="userSpaceOnUse"  x1="1.863" y1="48363.561" x2="2096.587" y2="48363.561">
			<stop offset="0" stop-color="#8a8a8a"  />
			<stop offset="28.57" stop-color="#f1f1f1"  />
			<stop offset="100" stop-color="#ffffff"  />
		</linearGradient>
		<linearGradient id="grd5" gradientUnits="userSpaceOnUse"  x1="19.558" y1="48413.64" x2="2114.282" y2="48413.64">
			<stop offset="0" stop-color="#8a8a8a"  />
			<stop offset="28.57" stop-color="#f1f1f1"  />
			<stop offset="100" stop-color="#ffffff"  />
		</linearGradient>
	</defs>
	<style>
		tspan { white-space:pre }
		.shp0 { fill: #333333;stroke: #000000;stroke-width: 5.81 } 
		.shp1 { fill: #93939f;stroke: #000000;stroke-width: 2.705 } 
		.shp2 { fill: #7f7f8d } 
		.shp3 { fill: #c1c1c8 } 
		.shp4 { fill: #ffffff;stroke: #000000;stroke-width: 5.484 } 
		.shp5 { opacity: 0.337;fill: #a5a5a5 } 
		.shp6 { fill: #000000;stroke: #000000;stroke-width: 3.476 } 
		.shp7 { fill: #ffffff } 
		.shp8 { fill: url(#grd1);stroke: #000000;stroke-width: 1.343 } 
		.shp9 { fill: url(#grd2);stroke: #000000;stroke-width: 1.343 } 
		.shp10 { fill: url(#grd3);stroke: #000000;stroke-width: 2.687 } 
		.shp11 { fill: #000000 } 
		.shp12 { fill: url(#grd4);stroke: #000000;stroke-width: 3.045 } 
		.shp13 { fill: url(#grd5);stroke: #000000;stroke-width: 3.045 } 
		.shp14 { fill: none;stroke: #000000;stroke-width: 5.373 } 
	</style>
	<g id="Page-1">
		<g id="mole">
			<path id="Shape" class="shp0" d="M174.09,2.93c-0.24,0 -0.57,0.04 -0.84,0.04v0.04c-14.63,0.17 -50.18,3.27 -63.26,35.14c-6.52,-8.66 -0.01,0 -21.03,-19.94c0,0 -26.38,25.85 9.61,44.2c12.5,115.99 -12.97,160.57 61.04,158.97c4.22,-0.09 8.84,-0.03 13.64,0.08h0.13l2.18,0.04v-0.08c4.8,-0.11 9.42,-0.17 13.64,-0.08c74,1.59 48.53,-42.98 61.04,-158.97c35.99,-18.36 9.61,-44.2 9.61,-44.2c-21.03,19.94 -14.51,11.28 -21.03,19.94c-13.52,-32.95 -51.13,-35.18 -64.73,-35.18z" />
			<path id="Shape" class="shp1" d="M245.77,196.17c0,42.53 -31.2,77 -69.68,77c-38.48,0 -69.68,-34.48 -69.68,-77c0,-42.53 31.2,-77 69.68,-77c38.48,0 69.68,34.48 69.68,77z" />
			<path id="Shape" class="shp2" d="M175.04,120.06c37.43,1.33 67.42,35.26 67.42,76.95c0,39.34 -26.7,71.76 -61.16,76.4c24.05,-6.71 42.23,-38.12 42.23,-75.86c0,-40.95 -21.4,-74.46 -48.49,-77.03z" />
			<path id="Shape" class="shp3" d="M174.86,118.92c-37.43,1.33 -67.42,35.26 -67.42,76.95c0,39.34 26.7,71.76 61.16,76.4c-24.05,-6.71 -42.23,-38.12 -42.23,-75.86c0,-40.95 21.4,-74.46 48.49,-77.03z" />
			<path id="Shape" class="shp4" d="M148.84,31.47c-17.28,0 -31.3,16.22 -31.3,36.21c0,19.99 14.03,36.21 31.3,36.21c10.15,0 19.16,-5.61 24.88,-14.28c5.72,8.68 14.75,14.28 24.9,14.28c17.27,0 31.3,-16.22 31.3,-36.21c0,-19.98 -14.03,-36.21 -31.3,-36.21c-10.16,0 -19.19,5.6 -24.9,14.28c-5.72,-8.67 -14.73,-14.28 -24.88,-14.28z" />
			<path id="Shape" class="shp5" d="M214.19,34.96c0.38,2.3 0.56,4.68 0.56,7.11c0,20.64 -14.46,37.37 -32.3,37.37c-10.49,0 -19.85,-5.77 -25.75,-14.74c-5.91,8.96 -15.18,14.74 -25.67,14.74c-5.2,0 -10.13,-1.42 -14.48,-3.95c2.87,17.25 15.99,30.31 31.74,30.31c10.49,0 19.8,-5.82 25.71,-14.78c5.9,8.97 15.22,14.78 25.71,14.78c17.84,0 32.34,-16.78 32.34,-37.42c0,-14.63 -7.28,-27.28 -17.86,-33.43z" />
			<g id="Group">
				<path id="Shape" class="shp6" d="M171.74,70.12c0,5 -4.06,9.06 -9.06,9.06c-5,0 -9.06,-4.06 -9.06,-9.06c0,-5.01 4.06,-9.06 9.06,-9.06c5.01,0 9.06,4.06 9.06,9.06z" />
				<path id="Shape" class="shp7" d="M161.75,66.95c0,1.3 -1.05,2.35 -2.35,2.35c-1.3,0 -2.35,-1.05 -2.35,-2.35c0,-1.3 1.05,-2.35 2.35,-2.35c1.3,0 2.35,1.05 2.35,2.35z" />
			</g>
			<g id="Group">
				<path id="Shape" class="shp6" d="M194.69,70.12c0,5 -4.06,9.06 -9.06,9.06c-5.01,0 -9.06,-4.06 -9.06,-9.06c0,-5.01 4.06,-9.06 9.06,-9.06c5.01,0 9.06,4.06 9.06,9.06z" />
				<path id="Shape" class="shp7" d="M184.7,66.95c0,1.3 -1.05,2.35 -2.35,2.35c-1.3,0 -2.35,-1.05 -2.35,-2.35c0,-1.3 1.05,-2.35 2.35,-2.35c1.3,0 2.35,1.05 2.35,2.35z" />
			</g>
			<path id="Shape" class="shp8" d="M86.59,27.61c0,0 -13.65,15.82 10.07,30.81c3.81,-3.69 4.35,-4.34 8.83,-7.89v-2.85c-5.43,-2.96 -2.92,-6.83 -11.77,-17.83z" />
			<path id="Shape" class="shp9" d="M263.59,28.31c0,0 13.65,15.82 -10.07,30.81c-3.81,-3.69 -4.35,-4.34 -8.83,-7.89v-2.85c5.43,-2.96 2.92,-6.83 11.77,-17.83z" />
			<path id="Shape" class="shp2" d="M166.03,122.31c37.43,1.33 67.42,35.26 67.42,76.95c0,39.34 -26.7,71.76 -61.16,76.4c24.05,-6.71 42.23,-38.12 42.23,-75.86c0,-40.95 -21.4,-74.46 -48.49,-77.03z" />
			<path id="Shape" class="shp10" d="M174.38,93.09c-11.55,0 -21.5,5.69 -26.07,13.89c-10.53,3.25 -17.3,8.35 -17.3,14.08c0,1.58 0.55,3.12 1.51,4.58c-0.73,1.69 -1.09,3.45 -1.09,5.25c0,13.04 20,23.61 44.67,23.61c24.67,0 44.67,-10.57 44.67,-23.61c0,-2.08 -0.52,-4.09 -1.47,-6.01c0.67,-1.23 1.05,-2.51 1.05,-3.82c0,-6.27 -8.12,-11.78 -20.4,-14.95c-4.77,-7.73 -14.43,-13.02 -25.56,-13.02z" />
			<path id="Shape" class="shp11" d="M190.73,100.97c0,8.71 -7.06,15.77 -15.77,15.77c-8.71,0 -15.77,-7.06 -15.77,-15.77c0,-8.71 7.06,-15.77 15.77,-15.77c8.71,0 15.77,7.06 15.77,15.77z" />
			<path id="Shape" class="shp12" d="M155.81,134.97h17.88v27.24h-17.88z" />
			<path id="Shape" class="shp13" d="M173.9,134.46h17.88v27.24h-17.88z" />
			<path id="Shape" class="shp14" d="M138.9,125.76c25.97,14.5 50.26,12.16 73.23,-3.38" />
		</g>
	</g>
</svg>