<?xml version="1.0" encoding="utf-8"?>
<!-- Generator: Adobe Illustrator 22.0.1, SVG Export Plug-In . SVG Version: 6.00 Build 0)  -->
<svg version="1.1" id="Layer_1" xmlns="http://www.w3.org/2000/svg" xmlns:xlink="http://www.w3.org/1999/xlink" x="0px" y="0px"
	 viewBox="0 0 211 113" style="enable-background:new 0 0 211 113;" xml:space="preserve">
<style type="text/css">
	.st0{fill:#542B01;}
	.st1{fill:#4B2601;}
	.st2{fill:#3A1E01;}
	.st3{fill:#432101;}
	.st4{fill:none;stroke:#3C1E00;stroke-linecap:round;stroke-linejoin:round;stroke-miterlimit:3;}
</style>
<g id="_x31_52" transform="matrix(1, 0, 0, 1, 100.6, 121.2)">
	<path class="st0" d="M-34.3-60.4c-0.9,1.7-1.3,4-1,6.9l-2.5,1.1c-1.5,1.6-2.7,3-3.4,4.3l-2.4,4.4c-0.3,0.5-0.4,1.2-0.3,1.9l0.3,2.2
		c-0.1,0.6-0.5,1.2-1.3,1.7c-0.7,0.5-1.1,1-1.3,1.7l0,0.5c0,1.3-0.7,1.5-2,0.5c-1.3-1-4.3,0-8.9,2.9l0.1-2.7c0.5,0.2,0.7,0,0.8-0.7
		c0-1.7-0.9-2.6-2.9-2.9c-1.7-0.3-3.9,0-6.5,1c-1.3,0.5-2.5,1.1-3.6,1.8c0,0.1,0,0.3-0.2,0.4c0.1-0.3,0.2-1,0.3-2
		c0.1-1.1,0-1.5-0.1-1.3c-0.1,0.2-0.2,0.2-0.4,0c-0.1-0.2-0.2-0.4-0.2-0.8c0-1.1,0.3-2.4,0.9-3.8c0.7-1.5,1.5-2.6,2.4-3.1l2.5-0.2
		c1.5,0,2.7-0.2,3.4-0.7c1.1-0.7,1.9-1.7,2.4-2.8c0.4-1,0.5-2,0.3-3l2.9-1.7v1.8l1.9-1c0.5-0.7,0.7-1.4,0.8-2c0-0.8-0.7-1.3-2.2-1.7
		c-1.5-0.3-2.2-0.9-2.1-1.7l0.4-2.6c0.7-0.7,1.4-1.5,2.1-2.4l3-3.7l1.1,0.1c0.8,0,1.8-0.3,3-1c1.8-0.9,3.9-3.3,6.4-7.2
		c0.8-1.2,1.4-2.2,1.9-3.1l0,0.2l4.2-2v-2.7c-0.8-0.8-0.8-1.9-0.2-3.3c0.6-1.3,1.8-2.3,3.6-2.8l3.5-1c1.1-0.4,1.9-1.1,2.5-1.8
		c0.4-0.5,0.6-1.2,0.6-1.8c0.3,0.2,0.7,0.3,1.2,0.3l4.4,0.2c0.5,0,0.8,0.1,0.8,0.3c0.5,0.7,1.9,1.3,4.1,1.9c2,0.6,3.4,0.9,4.2,0.8
		c-0.4-0.4-0.8-1.1-1.3-2l-0.2-0.3c-0.3-0.8-0.8-1.9-1.7-3.5c-1.4-2.5-3.6-2.6-6.4-0.5c0.3-2.3,1.6-4.2,3.9-5.7l4.8,0.4l4.3,0.3
		c2.3,0.2,7.3,2.1,15,5.6c-0.4-1.1-1.9-2.2-4.4-3.6c-2.6-1.3-4.9-2.4-7-3.3l2,0.1l4.7,0.1c1.6,0,3.2-0.7,4.9-2.2
		c0.6-0.6,1.2-1,1.7-1.3c0.2,0.2,0.7,0.6,1.6,1c1.2,0.6,2.2,0.9,3,0.9l0.5,0l-0.1-0.2l4.8-0.2c1.8,0,3.8,0.5,5.8,1.5
		c1.6,0.8,2.9,1.2,3.9,1.4l2.3,2.3c1.3,0.6,2.9,1.2,4.8,1.5l0,2.9l0.1,3c0.5,2.7,2.8,5.1,7,7.3l4.4,2.3c1.3,0.8,2,1.7,2.1,2.5
		c0,0.4,0,0.6-0.1,0.6l-0.1,0.1c-2.8-1.4-4.5-1.8-5.3-1.1c-0.3,0.3-0.4,0.9-0.4,1.7l1.1,3.6c0.7,2.1,1.1,3.2,1.3,3.3
		c1,1,3.2,2.8,6.5,5.3c2.6,2,4.8,4.2,6.7,6.7c-0.8,0.3-1.2,1.1-1.1,2.2l0.4,2.5c0,0.8-0.7,2.5-2,4.9c-0.5-3.6-1.4-6.7-2.8-9.5
		l-0.2-0.1c-1.5-1.1-2.6-1.9-3.4-2.5l-1.2-3.4c0.9-0.4,0.5-1.5-1.1-3.3c-2-1.8-3.2-3.1-3.6-3.7c-1.3-2.2-2.3-3.6-3-4.2l-2-1
		l-2.1-2.8l0.1-0.2l-0.3,0.1l-0.3-0.5l0-0.1c-1.3-1.9-1.8-3.1-1.4-3.5c0.4-0.5,0.6-0.9,0.7-1.4c-0.2,0-0.3-0.1-0.4-0.3l0-0.2
		c-2.2-0.4-3.8-1.3-4.8-2.5l-1.1-1.5c-0.4-0.5-0.9-0.8-1.4-1.1c-0.6-0.2-1.2,0.2-1.8,1.2L27.4-91L27.1-91c-3.2-1.4-6.2-2-8.8-1.8
		l-3.8-0.2L14.2-93l-0.3-0.1h-0.1c-7.3-5.6-13.7-6.1-19-1.3l-0.1,0.2l-0.7,0.6c0,0,0,0-0.1,0l-0.1,0.1h0l-0.2,0.2l-0.9,0.9
		c-0.8,0.5-0.8,1.1,0.1,1.6l-2.1,0.4c-7.5-0.8-12.4-0.4-14.7,1.4l-1.3,3.6l-0.9,0.5l-1.4,1.1c-1,0.9-1.6,1.6-1.8,2.1l-0.1,0.3
		l-0.1,2.3l-0.1,2.6c0.1,0.5,0.2,0.8,0.4,1c0.5,0.4-0.8,1.9-3.9,4.4c-0.3-0.5-0.8-1-1.4-1.3c-1.1-0.7-2.5-0.6-4.1,0.1
		c-1.2,0.6-2.6,1.7-4.2,3.3c-1.1,1.1-2,2.1-2.7,3.2c7.3-6.2,10.2-5.4,8.7,2.2C-35.3-63.7-34.4-62.6-34.3-60.4 M65.8-26l0.4,0.2
		l-0.4,0.1L65.8-26 M48.9-31.9l0.3,0.2l-0.3,0.7V-31.9 M30.4-97.4l-0.6-0.2l-2.9-3.5c-0.2-0.2-1.2-0.6-3.2-1.2
		c-2.4-0.7-4.3-0.6-5.7,0.4c-0.9,0.7-1.4,1.6-1.6,2.8v0.2l0.1-0.1c1.6-0.6,2.6-0.9,3.1-0.7c2.5,0.7,4.3,1.5,5.5,2.2
		c0.5,0.4,1.3,0.9,2.4,1.6c0.8,0.5,0.9,0.4,0.1-0.2c0.9,0.2,1.7-0.1,2.3-0.8L30.4-97.4 M57.8-49.2l0.7,0.8l0.5,0.5l0.1-0.2
		c1.3-0.6,3,0.1,5.2,2.2l-0.2-2.3c0.9,0.8,1.6,1.6,2.2,2.5c1.1,1.7,1.8,2.5,2,2.5l1.5,1.5l2.6,2.6c-1.9,0.8-2.5,2.3-2,4.5
		c-1.1-0.1-2.1,0.3-3,1.2c-0.8,0.9-1.4,1.4-1.8,1.4l-1.5-2.4L64-34.9l0,0c-0.5-0.2-1.1-0.5-1.7-0.8v-0.3l-0.1-0.4
		c-0.5-2.3-1.3-3.7-2.3-4.2c-0.5-0.3-0.9-0.6-1.1-0.9c-0.4-0.5-0.7-1.4-0.8-2.8v-1v0v0L57.8-49.2 M26.4-88.6L26.4-88.6l0.8-2.4
		l0.1,0.2L26.9-90v0l0,0.1L26.4-88.6 M37.3-57.2l-1-0.1l0-0.3L37.3-57.2 M48.9-39.4c-0.3,0.5-0.6,1-0.9,1.4
		C47.9-38.8,48.2-39.2,48.9-39.4 M-47.6-57.3L-47.6-57.3c2.6-2.2,4.6-3.1,6-2.5c0-2-1.6-2-4.9-0.1C-46.7-58.7-47-57.9-47.6-57.3"/>
	<path class="st1" d="M26-103.9c-2.1-1-4-1.5-5.8-1.5l-4.8,0.2l0.1,0.2l-0.5,0c-0.8,0-1.8-0.3-3-0.9c-0.8-0.4-1.4-0.8-1.6-1l0.1,0
		l0.5-0.3l1.6-0.6h0h0.1h0h0.1l3.5,0.5l4.9,0.5c0.9,0,2.4,0.6,4.6,1.9c0.4,0.3,1,0.5,1.7,0.6c0.4,0.1,1.2,0.7,2.5,1.9
		C28.9-102.7,27.6-103.2,26-103.9 M64-34.9l0.3,0.5l1.5,2.4c0.3,0,0.9-0.5,1.8-1.4c0.9-0.8,1.9-1.2,3-1.2c-0.6-2.2,0.1-3.7,2-4.5
		L70-41.7l-1.5-1.5c-0.2,0-0.9-0.9-2-2.5c-0.6-0.9-1.3-1.7-2.2-2.5l0.2,2.3c-2.2-2.1-4-2.8-5.2-2.2l-0.1,0.2l-0.5-0.5l-0.7-0.8
		l-0.2-1.6c1.3-2.4,1.9-4,2-4.9l-0.4-2.5c-0.1-1.1,0.3-1.8,1.1-2.2c-1.9-2.5-4.1-4.7-6.7-6.7c-3.3-2.6-5.5-4.3-6.5-5.3
		c-0.1-0.1-0.6-1.2-1.3-3.3l-1.1-3.6c-0.1-0.9,0-1.4,0.4-1.7c0.7-0.7,2.5-0.3,5.3,1.1l0.1-0.1c0.1,0,0.2-0.2,0.1-0.6
		c-0.1-0.9-0.8-1.7-2.1-2.5l-4.4-2.3c-4.2-2.1-6.6-4.6-7-7.3l-0.1-3l0-2.9c-1.9-0.4-3.5-0.9-4.8-1.5l0.2-0.3l0.6-0.3l0.3,0
		c1,0.2,2,0.2,3,0h1.5c1.3,0.6,2.2,1.5,2.7,2.7c0.3,0.8,0.6,2,0.7,3.5c0.1,0.8,0,1.5-0.3,2.2l-0.4,1.4c0.1,0.8,0.9,1.8,2.3,2.7
		c0.9,0.6,2.5,1.6,4.8,2.9c4.6,3.1,7.2,6.5,7.6,10.2c0.2,1.2-0.5,1.6-2,1.2c-1.5-0.3-2.1,0.3-2,1.8c0.1,0.8,2.1,2.4,6,4.9
		c4.2,2.7,6.6,4.8,7.2,6.4c1.1,3.1,2,5.6,2.4,7.5c0.3,1.1,0.6,2.4,0.8,3.8c1.4,0.8,2.4,1.7,3.1,2.6l3,4.4l3.8,3.8
		c1.2,1.3,1.9,2.7,2.1,4.4c0.1,0.8-0.1,1.3-0.7,1.7l-1.6,0.8h-0.1l-0.2,0l0.1,0.1c-1.4,0.7-1.5,2.3-0.3,4.5l-3.3-1.7l-0.1-1.2
		c-0.2,2.4-0.9,3.3-2.1,2.8l-2.6-1l-0.8,1.7c-0.2,0.3-0.6,0.5-1.2,0.5h0l-0.1,0.1l-0.5,0.1L65.8-26l0.1,0.3l-0.1,0L64.1-25l-0.2,0.1
		c-0.6,0.3-1.3,0.4-2,0.3C65.4-27.9,66.1-31.3,64-34.9 M-57.2-34.9c-2.9,1.9-5.3,2.8-7.1,2.8l-6-1.7l0.4-1l0.1-0.1l0.1-0.5
		c0.1-0.1,0.2-0.3,0.2-0.4c1.1-0.7,2.3-1.3,3.6-1.8c2.7-1,4.9-1.3,6.5-1c2,0.3,2.9,1.3,2.9,2.9C-56.5-34.9-56.7-34.7-57.2-34.9
		 M-56.7-61.8c0.3-0.9,0.6-1.8,0.8-2.8l1.5-5l4-2.2l0,2.8l4.3-2.2c0-0.3,0.2-1,0.7-2c0.5-0.9,0.7-1.6,0.8-2.1c0-0.3-0.1-0.4-0.1-0.4
		l-1,0.1c0.9-1.2,1.7-2.4,2.3-3.5c0.5-0.7,1.3-1.4,2.4-1.9l1.6-0.1c0.8,0.3,0.8,0.9,0.1,2c0.1-0.1,0.2-0.1,0.3,0
		c-0.5,0.9-1.1,1.9-1.9,3.1c-2.5,3.9-4.7,6.3-6.4,7.2c-1.3,0.7-2.3,1-3,1l-1.1-0.1l-3,3.7C-55.2-63.3-55.9-62.5-56.7-61.8 M-10-91
		c-0.8,0.1-2.2-0.2-4.2-0.8c-2.2-0.6-3.6-1.2-4.1-1.9c0-0.2-0.3-0.3-0.8-0.3l-4.4-0.2c-0.5,0-0.9-0.1-1.2-0.3c0,0.7-0.3,1.3-0.6,1.8
		c-0.5,0.8-1.3,1.4-2.5,1.8c1-0.9,1.9-2.1,2.7-3.7l0.1-0.2c0.9-1.9,2.1-3.1,3.5-3.5l1.6-0.3c0.4,0.1,0.5,0.6,0.3,1.5l0.1-0.2
		c2.8-2.2,5-2,6.4,0.5c0.8,1.5,1.4,2.7,1.7,3.5l0.2,0.3C-10.9-92.1-10.4-91.5-10-91 M4.1-100.3c2.5,1.3,4,2.5,4.4,3.6
		c-7.7-3.5-12.7-5.4-15-5.6l-4.3-0.3l-4.8-0.4l1.3-0.8c3.1-1.6,5.5-2,7-1.1c1.1,0.6,2.5,1.1,4.4,1.3C-0.8-102.7,1.5-101.6,4.1-100.3
		 M30-96.9c-0.6,0.8-1.3,1.1-2.3,0.8c0.7,0.6,0.7,0.6-0.1,0.2c-1-0.6-1.8-1.2-2.4-1.6c-1.2-0.8-3.1-1.5-5.5-2.2
		c-0.5-0.1-1.5,0.1-3.1,0.7l-0.1,0.1v-0.2c0.2-1.2,0.8-2.2,1.6-2.8c1.4-1,3.3-1.1,5.7-0.4c2,0.7,3,1.1,3.2,1.2l2.9,3.5l0.6,0.2
		L30-96.9 M38.1-81.4l0.3-0.1l-0.1,0.2L38.1-81.4 M50.1-66.3l1.2,3.4C50-64.1,49.6-65.2,50.1-66.3L50.1-66.3L50.1-66.3 M27.4-91
		l-0.1,0.1l-0.1,0.1L27.1-91L27.4-91 M-36.9-63.8c1.5-7.6-1.4-8.3-8.7-2.2c0.7-1.1,1.6-2.1,2.7-3.2c1.6-1.6,2.9-2.7,4.2-3.3
		c1.6-0.7,2.9-0.7,4.1-0.1c0.6,0.3,1.1,0.8,1.4,1.3c0.3,0.5,0.4,1.1,0.4,1.7c0,0.9-0.1,1.7-0.5,2.3c-0.4,0.6-0.5,1.1-0.5,1.6
		c0,0.5,0.7,0.7,2,0.6c1.4-0.1,2.1,0.4,2,1.5c-2,0.4-3.4,1.5-4.3,3.1C-34.4-62.6-35.3-63.7-36.9-63.8 M57.9-45.5L57.9-45.5
		L57.9-45.5L57.9-45.5 M-0.7-61l0.1-0.8v0.8H-0.7 M-40.8-84.5v-0.2V-84.5L-40.8-84.5 M-46.6-59.9c3.3-1.9,4.9-1.9,4.9,0.1
		c-1.4-0.5-3.4,0.4-5.9,2.6l-0.1-0.1C-47-57.9-46.7-58.7-46.6-59.9 M-19.7-48.6l-0.1,0.4l-0.1-0.4L-19.7-48.6"/>
	<path class="st2" d="M61.9-24.7l-1.5-0.5c-1-0.5-2-1.6-3-3.5l-1.8-3.9l-3.5-1.6L50-32.7l-0.9,1.1l-0.3-0.2v1l-0.1,0.5v0.2l0.6,2.3
		l0.1,0.3l0.3,1.1l0.1,0.8c0.2,1.7-0.4,2.8-1.8,3.3l-0.8,0.2h-0.1c-1.7,0.3-3.6,0.1-5.7-0.6c-1-0.3-2.9-1.9-5.5-5l-0.9-1
		c-2-2.2-3.3-4-4-5.4v0h0l-3-0.8c-0.5,0.4-0.9,0.9-1.2,1.5l-0.4,0.9c-0.4,1.2-0.3,2.1,0.2,2.8l0.3,3.2c-1.6,0.5-3,1.3-4.4,2.5
		c-0.5,0.5-1.9,0.7-4,0.3c-2-0.3-3.5-1.3-4.5-3c-1-1.7-1.8-2.6-2.1-2.6c-0.3-0.1-1,0-2,0.5l-1.7,0.5c-0.7,0-1.3-0.3-1.8-0.8
		c-0.5-0.7-1.1-1.1-1.9-1.2l-0.1-2l0.4-0.8l0.3-0.8l-0.1-2.3H2.7l-1.3,4.1C0.8-30.4-0.1-29-1-28.4l-3.8,2.8c-0.9,0.7-2,1.1-3.4,1.3
		l-1.7,0.2c-0.4-0.2-0.5-0.8-0.4-1.8l-1.6,0.8l-1.8,0.6c-0.8,0.2-2.1-0.2-3.8-1.2c-1.7-0.8-2.6-1.5-2.6-2.1l0.5-1.5
		c0.4-0.9,0.5-1.7,0.5-2.2c0-1.3-0.1-2-0.3-2.1l-3.5,0.7c-0.5,0.2-1-0.1-1.5-1l-0.2-0.3c-0.5-0.5-1-0.7-1.5-0.5
		c-0.6,0.3-1.5,1.1-2.4,2.4c-1,1.3-2.7,2.4-5.2,3.3c-0.7,0.3-1.9,1.2-3.4,2.7c-1.5,1.5-2.8,2.6-4,3.1c-0.8,0.4-1.3,0.5-1.5,0.3
		c-0.3-0.3-0.8-0.5-1.3-0.6c0-0.2,0.3-0.7,0.8-1.5l0-1.5v-0.8l0-0.4c-3.3,1.4-5.7,2.3-7.1,2.7c-2.4,0.6-3.9-0.1-4.5-2.3
		c-2.4,1.1-3.8,1.7-4.3,1.8c-0.6,0.2-0.9-0.4-0.9-1.8c0-0.6,0.2-1.2,0.5-1.8L-59-30l1.8-2.2c4.7-2.9,7.6-3.9,8.9-2.9
		c1.3,1,1.9,0.8,2-0.5l0-0.5c0.1-0.7,0.6-1.3,1.3-1.7c0.8-0.5,1.3-1.1,1.3-1.7l-0.3-2.2c-0.1-0.7,0-1.4,0.3-1.9l2.4-4.4
		c0.8-1.3,1.9-2.8,3.4-4.3l2.5-1.1c-0.2-2.9,0.1-5.2,1-6.9c0.9-1.6,2.3-2.6,4.3-3.1c0.1-1.1-0.5-1.6-2-1.5c-1.3,0.1-2-0.1-2-0.6
		c0-0.5,0.2-1,0.5-1.6c0.4-0.6,0.6-1.4,0.5-2.3c0-0.6-0.1-1.2-0.4-1.7c3.1-2.5,4.4-4,3.9-4.4c-0.2-0.2-0.3-0.5-0.4-1l0.1-2.6
		l0.1-2.3l0.1-0.3c0.2-0.5,0.8-1.2,1.8-2.1l1.4-1.1l0.9-0.5l1.3-3.6c2.3-1.7,7.2-2.2,14.7-1.4l2.1-0.4c-2.3,3.3-5.1,4.3-8.4,3
		c-3.3-1.4-5.3-0.8-6.2,1.7c-0.9,2.5-1,4.8-0.1,6.8c0.8,2,0.1,3.3-2.3,3.7c-2.3,0.4-1.7,2.5,1.8,6.2c3.5,1.2,4.6,2.3,3.2,3.4
		c-1.4,1.1-1.8,3.1-1.1,5.8c0.7,2.7,1.9,4.1,3.6,3.9c-0.3,0.8-0.7,1.5-1.2,2c-0.8,0.7-1.2,2-1.2,4l0.1,1.4c2.5-0.4,4.2-0.1,5,1
		c0.5,0.7,1.3,2,2.2,4.1c1.8,3.9,3.9,5.9,6.1,5.9c1.9,0,3.1-1.3,3.8-3.8c0.3-1.3,0.7-2.2,1-2.7c0.6-0.8,1.4-1.2,2.6-1.2
		c0.6,0,1.3,0.4,2.1,1.1l2.4,1.8h7.2c0.1-0.9-0.2-1.8-0.9-2.9l-1.4-2c2.3-0.7,3.7-1.2,4.1-1.5c1.5-0.9,2.3-2.4,2.3-4.4
		c0-1.3-0.5-2.4-1.5-3.5c-1-1-1.5-2-1.5-3c0-1.3,0.5-2,1.6-2l4,0.1c0.3-1.1,2.3-3.3,6.3-6.8l1.7-1.7l0-0.3c0-1,0-1.7,0.1-2.3
		c0.1-0.6,0.4-0.9,0.6-1l1.3,0c1.2-0.6,2.1-1.2,2.9-1.8l-0.1-1.6l-0.1-1.6l0.1-0.8l0,0l0-0.2l0.5-0.3l1.9,0.1
		c1.2-3.2-1.7-5.9-8.9-8.2l-0.2-0.1l0.5-1.3l0-0.1v0l0.4-0.8l0.1-0.1l0.1-0.1l-0.3,0l-0.8,2.3c-2.1-1.3-4.8-2.7-8-4.1
		c2.6-0.2,5.6,0.4,8.8,1.8l0.3-0.1l0.1-0.2c0.6-1,1.2-1.4,1.8-1.2c0.5,0.3,1,0.7,1.4,1.1l1.1,1.5c1,1.3,2.6,2.1,4.8,2.5l0,0.2
		c0.1,0.2,0.2,0.3,0.4,0.3c-0.1,0.4-0.3,0.9-0.7,1.4C36-85,36.4-83.9,37.7-82l0,0.1l0.3,0.5l0.1,0.1l2.1,2.8l2,1
		c0.7,0.6,1.7,2,3,4.2c0.4,0.6,1.6,1.8,3.6,3.7c1.7,1.8,2.1,2.9,1.1,3.3v0H50c-0.5,1.2,0,2.3,1.3,3.4c0.7,0.6,1.8,1.5,3.4,2.5
		l0.2,0.1c1.4,2.8,2.3,5.9,2.8,9.5l0.2,1.6l0.1,3.7v0h0l0,0v1c0.2,1.4,0.4,2.3,0.8,2.8c0.2,0.3,0.6,0.6,1.1,0.9
		c1,0.5,1.8,1.9,2.3,4.2l0.1,0.4v0.3c0.6,0.3,1.2,0.6,1.7,0.8l0,0C66.1-31.3,65.4-27.9,61.9-24.7 M36.3-57.5l0,0.3l1,0.1L36.3-57.5
		 M44.4-51.5l2.3,2.7c1.7,2.2,2.8,4.3,3.3,6.2l0.3,0L50-43.5c-0.3-1.2-1.4-2.9-3.2-5.3h0L44.4-51.5l-2.8-3c-1.7-1.5-3.1-2.4-4.3-2.7
		C39.4-56.1,41.8-54.2,44.4-51.5 M48-38c0.4-0.4,0.7-0.9,0.9-1.4C48.2-39.2,47.9-38.8,48-38 M5.1-79.9c0,1.2,0.5,1.8,1.5,2
		c1,0.2,1.5,0.9,1.5,2.2l0,2.1c0.1,1,0.5,1.8,1.2,2.4v7.3c-0.8,0-1.9,0.3-3.4,0.8c0-3.1-0.8-6-2.3-8.9c-1.5-2.8-2.3-5.2-2.3-7.2
		c0-2.7,0.5-4.2,1.5-4.4c1-0.2,2.9-1.8,5.7-4.8c-0.2,1.8-0.8,3.4-1.9,4.8C5.6-82.2,5.1-81,5.1-79.9 M-6.1-75.9
		c0.4-0.6,0.5-1,0.5-1.3h2.6v2.8H-4l0.3,1c0.3,0.6-0.2,0.9-1.5,1l-1.2-1.8L-6.6-75L-6.1-75.9 M-0.7-61C-1-59.2-1.1-58-1-57.2l0.4,2
		v2.8c-2-1-3.6-0.6-5,1.1l-1.6,2c-0.6,0.6-1.2,1-1.9,1c-0.6,0-1.3-0.5-2.1-1.6c-0.7-1-1.1-1.8-1.1-2.5c0-1.2,0.6-1.9,1.9-2.4
		c1.3-0.5,2.1-1.6,2.3-3.3l0.6-4c0.4-1.2,1.3-1.7,2.6-1.7c1,0,1.4,0.2,1.4,0.5c0,0.8,0.3,1.6,1.1,2.3H-0.7 M-19.9-48.7l0.1,0.4
		l0.1-0.4L-19.9-48.7"/>
	<path class="st3" d="M-7.3-90.8c-0.8-0.6-0.9-1.1-0.1-1.6l0.9-0.9l0.2-0.2h0l0.1-0.1c0.1,0,0.1,0,0.1,0l0.7-0.6l0.1-0.2
		c5.3-4.7,11.7-4.3,19,1.3h0.1l0.3,0.1l0.3,0.1l3.8,0.2c3.2,1.4,5.9,2.7,8,4.1l0.1,0.1l0.2,0.1c7.2,2.3,10.1,5,8.9,8.2l-1.9-0.1
		L33-80l0,0.2l0,0l-0.1,0.8l0.1,1.6l0.1,1.6c-0.8,0.6-1.8,1.2-2.9,1.8l-1.3,0c-0.3,0.1-0.5,0.4-0.6,1c-0.1,0.5-0.1,1.3-0.1,2.3
		l0,0.3l-1.7,1.7c-3.9,3.5-6,5.7-6.3,6.8l-4-0.1c-1.1,0-1.6,0.6-1.6,2c0,1,0.5,2,1.5,3c1,1,1.5,2.2,1.5,3.5c0,2-0.8,3.5-2.3,4.4
		c-0.5,0.3-1.8,0.8-4.1,1.5l1.4,2c0.7,1.1,1,2,0.9,2.9H6.2l-2.4-1.8c-0.8-0.7-1.5-1.1-2.1-1.1c-1.2,0-2,0.4-2.6,1.2
		c-0.3,0.5-0.6,1.3-1,2.7c-0.7,2.6-1.9,3.8-3.8,3.8c-2.2,0-4.2-2-6.1-5.9c-0.9-2.1-1.7-3.4-2.2-4.1c-0.9-1.1-2.5-1.4-5-1l-0.1-1.4
		c0-2,0.4-3.3,1.2-4c0.5-0.5,0.9-1.2,1.2-2c-1.7,0.1-2.9-1.2-3.6-3.9c-0.7-2.8-0.3-4.7,1.1-5.8c1.4-1.1,0.3-2.2-3.2-3.4
		c-3.6-3.7-4.2-5.7-1.8-6.2c2.3-0.5,3.1-1.7,2.3-3.7c-0.8-2.1-0.8-4.3,0.1-6.8c0.9-2.5,3-3.1,6.2-1.7C-12.4-86.5-9.7-87.5-7.3-90.8
		 M6.6-83.4c1.1-1.3,1.7-2.9,1.9-4.8c-2.8,2.9-4.7,4.5-5.7,4.8c-1,0.2-1.5,1.7-1.5,4.4c0,1.9,0.8,4.3,2.3,7.2C5.1-69,5.8-66,5.8-63
		c1.5-0.6,2.6-0.8,3.4-0.8v-7.3c-0.7-0.6-1.1-1.4-1.2-2.4l0-2.1c0-1.3-0.5-2.1-1.5-2.2c-1-0.2-1.5-0.9-1.5-2
		C5.1-81,5.6-82.2,6.6-83.4 M-6.6-75l0.3,0.8l1.2,1.8c1.2-0.1,1.7-0.4,1.5-1l-0.3-1h1.1v-2.8h-2.6c0,0.2-0.2,0.7-0.5,1.3L-6.6-75
		 M-2.5-61c-0.7-0.8-1.1-1.6-1.1-2.3c0-0.3-0.4-0.5-1.4-0.5c-1.3,0-2.2,0.6-2.6,1.7l-0.6,4c-0.2,1.7-1,2.8-2.3,3.3
		c-1.2,0.4-1.9,1.2-1.9,2.4c0,0.6,0.4,1.5,1.1,2.5c0.8,1.1,1.5,1.6,2.1,1.6c0.7,0,1.3-0.3,1.9-1l1.6-2c1.4-1.7,3.1-2.1,5-1.1v-2.8
		l-0.4-2c-0.1-0.7,0-2,0.3-3.7H-2.5 M-0.6-61v-0.8L-0.7-61H-0.6"/>
	<path class="st4" d="M-69.9-38.7c-0.1-0.2-0.2-0.4-0.2-0.8c0-1.1,0.3-2.4,0.9-3.8c0.7-1.5,1.5-2.6,2.4-3.1l2.5-0.2
		c1.5,0,2.7-0.2,3.4-0.7c1.1-0.7,1.9-1.7,2.4-2.8c0.4-1,0.5-2,0.3-3l2.9-1.7v1.8l1.9-1c0.5-0.7,0.7-1.4,0.8-2c0-0.8-0.7-1.3-2.2-1.7
		c-1.5-0.3-2.2-0.9-2.1-1.7l0.4-2.6c0.3-0.9,0.6-1.8,0.8-2.8l1.5-5l4-2.2l0,2.8l4.3-2.2c0-0.3,0.2-1,0.7-2c0.5-0.9,0.7-1.6,0.8-2.1
		c0-0.3-0.1-0.4-0.1-0.4l-1,0.1c0.9-1.2,1.7-2.4,2.3-3.5c0.5-0.7,1.3-1.4,2.4-1.9l1.6-0.1c0.8,0.3,0.8,0.9,0.1,2
		c0.1-0.1,0.2-0.1,0.3,0l0,0.2l4.2-2v-2.7c-0.8-0.8-0.8-1.9-0.2-3.3c0.6-1.3,1.8-2.3,3.6-2.8l3.5-1c1-0.9,1.9-2.1,2.7-3.7l0.1-0.2
		c0.9-1.9,2.1-3.1,3.5-3.5l1.6-0.3c0.4,0.1,0.5,0.6,0.3,1.5l0.1-0.2c0.3-2.3,1.6-4.2,3.9-5.7l1.3-0.8c3.1-1.6,5.5-2,7-1.1
		c1.1,0.6,2.5,1.1,4.4,1.3l2,0.1l4.7,0.1c1.6,0,3.2-0.7,4.9-2.2c0.6-0.6,1.2-1,1.7-1.3l0.1,0l0.5-0.3l1.6-0.6h0h0.1h0h0.1l3.5,0.5
		l4.9,0.5c0.9,0,2.4,0.6,4.6,1.9c0.4,0.3,1,0.5,1.7,0.6c0.4,0.1,1.2,0.7,2.5,1.9l2.3,2.3l0.2-0.3l0.6-0.3l0.3,0c1,0.2,2,0.2,3,0h1.5
		c1.3,0.6,2.2,1.5,2.7,2.7c0.3,0.8,0.6,2,0.7,3.5c0.1,0.8,0,1.5-0.3,2.2l-0.4,1.4c0.1,0.8,0.9,1.8,2.3,2.7c0.9,0.6,2.5,1.6,4.8,2.9
		c4.6,3.1,7.2,6.5,7.6,10.2c0.2,1.2-0.5,1.6-2,1.2c-1.5-0.3-2.1,0.3-2,1.8c0.1,0.8,2.1,2.4,6,4.9c4.2,2.7,6.6,4.8,7.2,6.4
		c1.1,3.1,2,5.6,2.4,7.5c0.3,1.1,0.6,2.4,0.8,3.8c1.4,0.8,2.4,1.7,3.1,2.6l3,4.4l3.8,3.8c1.2,1.3,1.9,2.7,2.1,4.4
		c0.1,0.8-0.1,1.3-0.7,1.7l-1.6,0.8h-0.1l0,0c-1.4,0.7-1.5,2.3-0.3,4.5l-3.3-1.7l-0.1-1.2c-0.2,2.4-0.9,3.3-2.1,2.8l-2.6-1l-0.8,1.7
		c-0.2,0.3-0.6,0.5-1.2,0.5h0l-0.1,0.1l-0.5,0.1l-0.4,0.1l-0.1,0L64.1-25l-0.2,0.1c-0.6,0.3-1.3,0.4-2,0.3l-1.5-0.5
		c-1-0.5-2-1.6-3-3.5l-1.8-3.9l-3.5-1.6L50-32.7l-0.9,1.1l-0.3,0.7l-0.1,0.5v0.2l0.6,2.3l0.1,0.3l0.3,1.1 M48.1-22.5l-0.8,0.2h-0.1
		c-1.7,0.3-3.6,0.1-5.7-0.6c-1-0.3-2.9-1.9-5.5-5l-0.9-1c-2-2.2-3.3-4-4-5.4v0h0l-3-0.8c-0.5,0.4-0.9,0.9-1.2,1.5l-0.4,0.9
		c-0.4,1.2-0.3,2.1,0.2,2.8l0.3,3.2c-1.6,0.5-3,1.3-4.4,2.5c-0.5,0.5-1.9,0.7-4,0.3c-2-0.3-3.5-1.3-4.5-3c-1-1.7-1.8-2.6-2.1-2.6
		c-0.3-0.1-1,0-2,0.5l-1.7,0.5c-0.7,0-1.3-0.3-1.8-0.8c-0.5-0.7-1.1-1.1-1.9-1.2l-0.1-2l0.4-0.8l0.3-0.8l-0.1-2.3H2.7l-1.3,4.1
		C0.8-30.4-0.1-29-1-28.4l-3.8,2.8c-0.9,0.7-2,1.1-3.4,1.3l-1.7,0.2c-0.4-0.2-0.5-0.8-0.4-1.8l-1.6,0.8l-1.8,0.6
		c-0.8,0.2-2.1-0.2-3.8-1.2c-1.7-0.8-2.6-1.5-2.6-2.1l0.5-1.5c0.4-0.9,0.5-1.7,0.5-2.2c0-1.3-0.1-2-0.3-2.1l-3.5,0.7
		c-0.5,0.2-1-0.1-1.5-1l-0.2-0.3c-0.5-0.5-1-0.7-1.5-0.5c-0.6,0.3-1.5,1.1-2.4,2.4c-1,1.3-2.7,2.4-5.2,3.3c-0.7,0.3-1.9,1.2-3.4,2.7
		c-1.5,1.5-2.8,2.6-4,3.1c-0.8,0.4-1.3,0.5-1.5,0.3c-0.3-0.3-0.8-0.5-1.3-0.6c0-0.2,0.3-0.7,0.8-1.5l0-1.5v-0.8l0-0.4
		c-3.3,1.4-5.7,2.3-7.1,2.7c-2.4,0.6-3.9-0.1-4.5-2.3c-2.4,1.1-3.8,1.7-4.3,1.8c-0.6,0.2-0.9-0.4-0.9-1.8c0-0.6,0.2-1.2,0.5-1.8
		L-59-30l1.8-2.2l0.1-2.7c-2.9,1.9-5.3,2.8-7.1,2.8l-6-1.7l0.4-1l0.1-0.1l0.1-0.5c0.1-0.3,0.2-1,0.3-2c0.1-1.1,0-1.5-0.1-1.3
		 M-7.3-90.8c-0.8-0.6-0.9-1.1-0.1-1.6l0.9-0.9l0.2-0.2h0l0.1-0.1c0.1,0,0.1,0,0.1,0l0.7-0.6l0.1-0.2c5.3-4.7,11.7-4.3,19,1.3h0.1
		l0.3,0.1l0.3,0.1l3.8,0.2l-0.1-1.8l-1.5-1.6c-0.3-0.3-0.4-0.6-0.4-1c0-0.7,0-1.3,0.1-1.8v-0.2c0.2-1.2,0.8-2.2,1.6-2.8
		c1.4-1,3.3-1.1,5.7-0.4c2,0.7,3,1.1,3.2,1.2l2.9,3.5l0.6,0.2l1.9,0.8l-0.4-2.5l0.2-1 M27.4-91l0.1-0.2c0.6-1,1.2-1.4,1.8-1.2
		c0.5,0.3,1,0.7,1.4,1.1l1.1,1.5c1,1.3,2.6,2.1,4.8,2.5l0,0.2c0.1,0.2,0.2,0.3,0.4,0.3c-0.1,0.4-0.3,0.9-0.7,1.4
		C36-85,36.4-83.9,37.7-82l0,0.1l0.3,0.5l0.1,0.1l2.1,2.8l2,1c0.7,0.6,1.7,2,3,4.2c0.4,0.6,1.6,1.8,3.6,3.7c1.7,1.8,2.1,2.9,1.1,3.3
		l-0.1,0c-0.5,1.2,0,2.3,1.3,3.4c0.7,0.6,1.8,1.5,3.4,2.5l0.2,0.1c1.4,2.8,2.3,5.9,2.8,9.5l0.2,1.6 M59.1-47.9l0.1-0.2
		c1.3-0.6,3,0.1,5.2,2.2l-0.2-2.3L64-50.9l3.3,1.4l0.3,0.2 M50-42.6c-0.5-1.9-1.6-3.9-3.3-6.2l-2.3-2.7c-2.6-2.7-5-4.6-7.1-5.7
		l-1-0.4l-2,0c-0.4,0.4-1.1,0.4-2.2,0c-2.7-3.7-3.2-5.8-1.6-6.3l-0.4-3.7c-1-0.5-1.5-0.9-1.7-1.2c-0.1-0.1-0.2-0.7-0.3-1.6l0-0.3
		c0-1,0-1.7,0.1-2.3c0.1-0.6,0.4-0.9,0.6-1l1.3,0c1.2-0.6,2.1-1.2,2.9-1.8l-0.1-1.6l-0.1-1.6l0.1-0.8l0,0l0-0.2l0.5-0.3l1.9,0.1
		c1.2-3.2-1.7-5.9-8.9-8.2l-0.2-0.1l-0.1-0.1 M18.3-92.7c2.6-0.2,5.6,0.4,8.8,1.8l-0.3,1 M27.4-91L27.4-91l-0.1,0.2 M27.2-90.8
		L26.9-90v0l0,0.1l-0.3,1.4 M40.3-78.4l-2.1-0.9l-2.8-0.9c0.2,1.6-0.6,3.1-2.4,4.5l0.1,1.4l0.1,1.3l-2.5-0.7l-0.7-0.1l-1.9,1
		 M-7.3-90.8l-2.1,0.4c-7.5-0.8-12.4-0.4-14.7,1.4l-1.3,3.6l-0.9,0.5l-1.4,1.1c-1,0.9-1.6,1.6-1.8,2.1l-0.1,0.3l-0.1,2.3l-0.1,2.6
		c0.1,0.5,0.2,0.8,0.4,1c0.5,0.4-0.8,1.9-3.9,4.4c0.3,0.5,0.4,1.1,0.4,1.7c0,0.9-0.1,1.7-0.5,2.3c-0.4,0.6-0.5,1.1-0.5,1.6
		c0,0.5,0.7,0.7,2,0.6c1.4-0.1,2.1,0.4,2,1.5c-2,0.4-3.4,1.5-4.3,3.1c-0.9,1.7-1.3,4-1,6.9l-2.5,1.1c-1.5,1.6-2.7,3-3.4,4.3
		l-2.4,4.4c-0.3,0.5-0.4,1.2-0.3,1.9l0.3,2.2c-0.1,0.6-0.5,1.2-1.3,1.7c-0.7,0.5-1.1,1-1.3,1.7l0,0.5c0,1.3-0.7,1.5-2,0.5
		c-1.3-1-4.3,0-8.9,2.9 M50-42.6l0.2,1.1v0.1c0.2,1.3-0.2,2-1.1,2l-0.2,0c-0.6,0.2-1,0.6-0.9,1.4l0.1,0.7l0.4,0.5l0.4,5v1 M27.1-91
		l-0.8,2.3 M26.4-88.6l0.5-1.3 M59.1-47.9c-0.5,0.4-0.9,0.9-1,1.7l-0.1,0.7v0v0v1c0.2,1.4,0.4,2.3,0.8,2.8c0.2,0.3,0.6,0.6,1.1,0.9
		c1,0.5,1.8,1.9,2.3,4.2l0.1,0.4v0.3c0.6,0.3,1.2,0.6,1.7,0.8l0,0c2.1,3.6,1.4,7-2.1,10.3 M57.9-45.5l-0.1-3.7 M77.3-31.6l-0.2,0
		L77.3-31.6 M-19.6-97.2c2.8-2.2,5-2,6.4,0.5c0.8,1.5,1.4,2.7,1.7,3.5l0.2,0.3c0.4,0.9,0.8,1.6,1.3,2l0.6,0.6 M-33.3-71.2
		c-0.3-0.5-0.8-1-1.4-1.3c-1.1-0.7-2.5-0.6-4.1,0.1c-1.2,0.6-2.6,1.7-4.2,3.3c-1.1,1.1-2,2.1-2.7,3.2l-0.5,0.7
		c-0.4,0.7-0.6,1.5-0.6,2.5c0.1,1.1,0.2,1.9,0.1,2.4l0,0.5c-0.1,1.2-0.5,2-1.1,2.6l-0.9,0.9l-0.3,0.8c0,0.4,0.1,0.6,0.2,0.7
		 M-32.4-54.8v1.5 M-54.5-37.9l3.3-3.5c1.3-1.7,1.5-3,0.6-4.1l0.4-0.4l0.9-0.6l0.8-0.4l0.8,1c0.6-0.5,1.2-1.2,1.8-2.1
		c0.5-0.8,0.8-1.3,0.8-1.4c0-0.5-0.3-0.9-1.1-1.2l-1.5-0.2 M-24.6-49.3l0.1,4.2l-0.8,0.3 M-26.6-51.3c0.4,0.8,0.9,1.4,1.5,1.8"/>
</g>
</svg>
