<?xml version="1.0" encoding="utf-8"?>
<!-- Generator: Adobe Illustrator 22.0.1, SVG Export Plug-In . SVG Version: 6.00 Build 0)  -->
<svg version="1.1" id="Layer_1" xmlns="http://www.w3.org/2000/svg" xmlns:xlink="http://www.w3.org/1999/xlink" x="0px" y="0px"
	 viewBox="0 0 211 129" style="enable-background:new 0 0 211 129;" xml:space="preserve">
<style type="text/css">
	.st0{fill:#4B2601;}
	.st1{fill:#542B01;}
	.st2{fill:none;stroke:#3C1E00;stroke-linecap:round;stroke-linejoin:round;stroke-miterlimit:3;}
</style>
<g id="_x31_53" transform="matrix(1, 0, 0, 1, 101, 88)">
	<path class="st0" d="M61.7-33.5c0.7,2.8,1.2,5.2,1.5,7.1l0.3,3.9c1.3,0,2.2,0.4,2.7,1.1l1.8,2.3c1.2-1.1,2-1.8,2.5-2l0.9-0.2v-1.7
		c-0.3-0.1-0.5-0.4-0.8-1c-0.3-0.5-0.4-1-0.4-1.4c0-0.5,0.5-1.1,1.4-1.8c1-0.8,1.4-1.3,1.4-1.4c0-2.1-1.4-3.5-4.3-3.9
		c-0.9-0.1-2-0.6-3.1-1.5c-1.2-0.9-1.9-1.7-1.9-2.4l0.2-0.7l0.2-0.7c0-0.9-0.3-1.4-1-1.4c-0.6-0.1-1-0.5-1-1.4l0.3-2.1
		c0.1-0.9-0.1-1.6-0.6-2.1v-1.1c1.3-0.1,2-0.8,2-1.9c0-0.8-0.3-1.9-0.9-3.2c-0.6-1.5-1.3-2.4-1.9-2.9l-3.2-0.6
		c-1.3-0.2-1.9-0.8-1.8-2L54-56.8c-0.5-0.2-0.8-0.6-0.8-1.3l0.3-1.4l0.2-1.4l-0.2-1.3c-0.3-0.5-0.9-0.7-1.8-0.7
		c-0.8,0-1.7,0.5-2.8,1.5c-1,1-2.5,1.6-4.4,1.6c0.2-0.6,0.7-1.2,1.6-1.8l1.3-1c0.3-0.4,0.7-1,1-1.8c-0.5-1-0.2-2.1,1.1-3.1l0.6-0.5
		c1.1-0.8,2.3-1.1,3.7-1.1c0.8,0,1.6,0.4,2.4,1.1l0.8,1c1,1.3,1.4,2.7,1.4,4l-0.3,2l-0.3,1.6c0,0.8,0,1.3,0.1,1.5
		c0.1,0.4,0.5,0.5,1.1,0.3c0.1,0.8,1,1.1,2.7,0.9c2-0.2,3.4,0.2,4,1.2c0.6,0.8,1.1,2.7,1.5,5.7l0.5,4.3c0,0.5-0.4,1.1-1.3,1.7
		c-0.5,0.3-0.8,0.6-1,1c2.3,2.6,3.9,4,4.8,4h2.1c1.2,0,1.9,0.5,2,1.5c0.2,1.8,0.5,3.1,0.9,3.9c0.6,1.1,1.5,2.4,2.7,3.9
		c0.8,1.3,1.3,2.7,1.3,4.2c0,2-0.6,3.2-1.9,3.7c-1.2,0.5-1.8,1.8-1.6,3.9c0.1,1.2-0.5,2.2-1.8,3c-0.4,0.2-0.7,0.4-1.1,0.6l0.1,1.5
		c0,0.7-0.3,1.5-0.9,2.2l-1.7,1.9l-0.3,0.1l0.1,0C69-7,68.7-5.4,69.5-3.6h-2.9v-1.1c-0.5,2.7-1.2,4.1-2.3,4.2L62-0.1l-1,2.2
		c-0.2,0.4-0.6,0.8-1.1,1.2l0,0l-0.2,0.2c-0.1,0.1-0.3,0.2-0.5,0.4h-0.4l0,0.3l-0.1,0.1l-1.6,1.5l-0.3,0.3c-1,1-2.1,1.5-3.2,1.5
		c-0.9,0-1.7-0.7-2.4-2.1l-1.3-3.2h-3.2l-2.1,2.4l-1,1.5L43.3,6l-0.1,0.9c-0.1,0.3-0.1,0.5-0.1,0.7c0,0.3,0.1,1,0.4,2l0.1,0.3l0.2,1
		v0c-0.6,1.9-1.3,3.5-2,4.8L41,16.1l-0.1,0c-1.6,1-3.4,1.5-5.4,1.5c-1,0-2.5-1-4.8-3.1L30,13.9l-0.7-1.3c-0.8-1.5-2-2.7-3.5-3.4
		c-1.1-0.5-1.7-1.3-1.7-2.4c0-1,0.2-1.8,0.5-2.3c0.5-0.9,1.6-1.3,3.1-1.3c1.8,0,3.5,1,5.2,3.1c1.6,2,2.6,3,3,3c2.2,0,3.3-1,3.4-3.1
		C39,4,38.8,2.7,38.8,2.3c0-1.1,0.2-2.6,0.7-4.4l0.6-3.5c0-1.3-0.5-2.2-1.4-2.7c-0.9-0.4-2.5-0.6-4.9-0.6c-1.3,0-2.1-0.6-2.6-1.7
		L31-12.1c0-1.6,0.8-2.6,2.4-3.2l1.3-0.3c1.1-0.2,2.5,0.2,4,1.1c1.5,0.9,3,2.2,4.5,3.8c1.5,1.6,2.4,3,2.6,4.1L46-4.7l1.1,0
		c2,0,3.6,0.2,4.6,0.6l1.4,0.6l0.8-0.9c0.5-0.7,1.2-1,2.1-1l0.7,0l0,0.4v0.3h1.5l0.3,0.4l1.1,1.7L61.4-5c0.9-1.5,1.9-2.5,3-3.1
		c-0.3-2,0.5-4,2.4-6l-2.1-1.4c-0.7-0.5-1.1-0.8-1.3-0.8c-0.2,0-0.8-0.6-1.6-1.7c-0.5-0.6-1.1-1.1-1.9-1.4l0,2.4
		c-1.9-1-3.5-0.8-4.8,0.5l-0.2,0.3l-0.5-0.3c-0.5-0.2-0.8-0.5-1-0.9l0-0.2l-2.7,2.2c-0.8,0.7-1.8,1-3,1c-1.3,0-2.1-0.5-2.5-1.6
		c-0.2-0.5-0.3-1.1-0.3-1.8c0-0.9,0.2-1.6,0.5-2.1c0.4-0.7,1.4-1.6,2.9-2.8c-3.7-3.8-5.7-5.9-5.8-6.2c-0.2-0.6-0.1-2.1,0.3-4.4
		c0-0.5-1.2-1.7-3.6-3.8l-3,0.4c-1,0.4-1.8,1-2.3,1.8l-1,1.5l-0.7,0.4L32-35.8c0-1.3,0.1-2.2,0.3-2.8l0.1-0.3l0.5-0.6l-2.1-1.9
		c0.9-1.3,1.6-2.6,1.9-3.9c0.3-1.3-0.2-2-1.5-2.1c-1.4-0.1-2.5-0.7-3.5-1.6L27.6-49l0.2-0.3c0.7-1.4,1.3-2.1,1.9-2.1
		c0.5,0,1,0.2,1.4,0.6l1,1.3c0.9,1.1,2.4,1.3,4.6,0.7l0,0.2l0.3,0.2c-0.1,0.6-0.4,1.2-0.8,1.9c-0.4,0.6,0,1.7,1.1,3.4l0,0.1l0.3,0.4
		l0.3-0.2l-0.2,0.3l1.9,2.2l1.9,0.2l2.7,3.1c0.3,0.4,1.3,1.2,3.1,2.3l0.8,3l0.8,3.2c0.6,0.3,1.6,0.6,3.1,1l0.1,0.1l2.5,5.5
		c0.9-0.9,1.5-1.9,1.6-3c0.1-0.5,0-1.4-0.1-2.6c0-1.2,0.5-2.3,1.3-3c-1.6-1.7-1.9-3.3-0.8-4.6c0.4-0.5,0.5-0.9,0.4-1.1l1.8,0.5
		C60.5-35.2,61.4-34.4,61.7-33.5 M60.1-22.2l3-0.4L60.1-22.2 M43.1,0l1-1.9C43.5-1.4,43.1-0.8,43.1,0 M53-42.3
		c-0.6-0.4-1.6-0.8-2.9-1.2c-4-1.1-5.8-1.9-5.4-2.3c0.8-1.1,2.6-1.7,5.2-1.6l0.2-0.2l0.2-0.8c0-1-0.6-1.5-1.9-1.8l-4.2-0.3
		c-4.1-0.2-6.2-1.8-6.4-4.9c0-0.8,0-2,0.1-3.4l0.2-3.4c-1.9,0.5-3.5,0.7-4.8,0.6l0.2-0.4l0.7-0.7l0.3-0.1c1-0.3,2-0.8,3.1-1.5
		l1.5-0.8c1.3,0,2.1,0.6,2.5,1.9c0.2,0.7,0.4,2,0.4,3.8c0,0.8-0.2,1.7-0.5,2.7c-0.4,1-0.5,1.6-0.5,1.9c0,1,0.7,1.6,2.1,2l4.5,0.8
		c4.4,0.9,6.6,3.3,6.6,7.5C54.2-43.5,53.8-42.8,53-42.3 M16.9-54.6c0.3-1.4,0.9-2.6,1.9-3.6c1.5-1.5,3.4-2.3,5.9-2.3l3.3,0.2
		l2.6,2.9h0.6l-0.4,0.7c-0.7,1.1-1.5,1.7-2.4,1.9c0.7,0.4,0.6,0.4-0.1,0.2l-2.4-0.8c-1.2-0.5-3.1-0.7-5.5-0.7
		c-0.5,0-1.6,0.6-3.3,1.7l-0.2,0.1L16.9-54.6 M-6.8-47l0.1,0l0,0l0.9-0.7c0.4-0.5,0.7-1,1-1.6l0-0.1l0-0.1c0.7-1.9,1.5-2.8,2.5-2.8
		c2.7,0,5.8,0.9,9.4,2.6c3.3,1.6,5.6,2.5,6.9,2.7l0,0c-2.9-0.6-8.6-1.3-17.1-2.2l-1.9,1.3C-5.5-47.6-6.1-47.2-6.8-47L-7-46.9
		L-6.8-47 M-10.8-44.9c-0.9-0.1-2.3-0.7-4.3-1.8c-2.3-1.3-3.7-2.3-4.2-3.2l-0.9-0.6c-1.5-0.5-3-1.1-4.5-1.7
		c-0.5-0.2-0.9-0.4-1.3-0.8c0,0.7-0.3,1.2-0.7,1.7c-0.6,0.6-1.4,1-2.5,1c1.1-0.5,2-1.5,2.8-3l0.1-0.1c0.9-1.7,2.1-2.5,3.8-2.5
		l1.7,0.1c0.4,0.2,0.5,0.8,0.3,1.8c3.1-1.6,5.3-0.9,6.8,2.2l1.6,4.2l0.1,0.3C-11.6-46.3-11.2-45.5-10.8-44.9 M5.2-43
		c1.9-0.7,4.2-1.1,6.8-1.1c0.7,0,2,0.7,3.9,2.3c2.1,1.7,3.2,3.1,3.2,4.4L18.8-36c-0.2,0.7-0.4,1.2-0.4,1.5c0,0.2,0.4,0.7,1.3,1.6
		c1,1,2.3,1.8,4,2.5v0.4c0,1-0.3,2-0.9,3.1c-0.8,1.4-1.8,2.1-3,2.1c-3.5,0-5.4-1.4-5.8-4.3c-0.2-1.6,0-3.7,0.4-6.5
		c-0.1-2.2-2-3.9-5.8-5.1l-3.9-1.5l-0.5-0.4L5.2-43 M27.5-48.6l-0.1-0.2l0.3-0.2l-0.1,0.2L27.5-48.6 M17.3-15.2
		c-1.5-3.4-3.7-3.4-6.6,0l0-1.1c0-0.9,0.4-1.9,1.1-2.8c0.8-1,1.6-1.5,2.5-1.5c1,0,2.6,1,5,3s3.6,3.4,3.6,4.2l-0.4,1.1
		c-0.2,0.5-0.4,0.9-0.4,1.1c0,0.6,0.3,1.1,0.8,1.5l1.4,1.1C21-9.6,18.7-11.8,17.3-15.2 M-0.4-15.8c-1.5-2.1-4.1-2.5-8-1.4l3-1.5
		c1-0.5,2.1-0.8,3-0.8c2.1,0,4.2,1.5,6.3,4.4c1.1,1.5,1.8,2.5,2.3,2.9l1.3,0.9C3.7-12.4,1-13.9-0.4-15.8 M-42.1,9.3l1.4,1.1
		c0.5,0,1.8-1.1,4-3.4c2-2.1,3.6-2.8,4.9-2.1c1.3,1.1,3.1,2,5.4,2.8l0.9,0.5l0.6-0.1c2.1,0,4.3,0.9,6.6,2.7c0.5,0.8,0.9,2.1,1.4,3.9
		l1,3.9l1.4-0.1c-0.1-0.6,0.5-1.3,1.6-2l3.1-2.4c0.8-0.9,2.3-1.9,4.4-3c1.8-1,2.8-1.5,3-1.5c1.3,0,2.1,0.4,2.6,1.3
		c0.5-0.6,1.2-0.9,2.2-0.9c1.6,0,2.5,0.6,2.7,1.9c0.3,1.7,0.5,2.6,0.6,2.7C7,14.2,8,13.9,8.8,13.9c1.5,0,2.4,0.3,2.9,0.9l0.5,1.3
		c0.5-0.1,1.3-0.8,2.4-2c0.8-0.9,2-1.1,3.4-0.6c0-4.4,1-5.7,2.9-4.1c0.6,0.5,1.1,1.2,1.6,2.1l-0.5,0.9c-0.5,1.2-0.5,2.1,0,2.7v3
		c-1.5,0.8-3,1.9-4.3,3.3c-0.6,0.6-1.9,0.9-3.9,0.9c-1.8,0-3.2-0.7-4-2.3c-0.9-1.5-1.5-2.3-1.9-2.3c-0.3,0-1,0.2-2,0.6l-1.6,0.6
		c-0.7,0-1.2-0.3-1.6-0.8c-0.5-0.6-1.1-1-1.8-1.1V15l0.4-0.8l0.4-0.8v-2.3h-2.1l-1.4,3.9c-0.8,2-1.6,3.3-2.5,3.7l-3.8,2.3
		c-0.9,0.5-2,0.8-3.2,0.8l-1.7-0.1c-0.4-0.2-0.5-0.8-0.3-1.8l-1.5,0.5l-1.7,0.2c-0.7,0-1.9-0.6-3.6-1.9c-1.7-1.3-2.5-2.2-2.5-2.7
		l0.5-1.3c0.4-0.8,0.5-1.4,0.5-1.9c0-1.2-0.1-1.9-0.2-2.1c-0.3-0.3-1.4-0.4-3.4-0.4c-0.5,0-1-0.4-1.4-1.3l-0.3-0.4
		c-0.4-0.6-0.9-0.9-1.4-0.9c-0.6,0-1.4,0.5-2.4,1.4c-1,0.9-2.6,1.3-5,1.3c-0.7,0-1.8,0.4-3.2,1.3c-1.4,0.9-2.7,1.4-3.8,1.4l-1.4-0.3
		l-1.3-1.2c0-0.3,0.2-0.6,0.7-1.1V8.2C-43.6,8.3-42.8,8.7-42.1,9.3 M-57.5-1.7l-1.1,0.2c3.9-0.1,7.4,1.1,10.4,3.5
		c2.5,2,3.8,3.8,3.8,5.2v0.5l-6.8-0.8c-2.2-0.6-3.7-2.1-4.3-4.6L-59.6,2c-0.6-0.1-0.9-0.9-0.9-2.4c0-0.6,0.2-1.1,0.5-1.5L-57.5-1.7
		 M-69.8-14.1l3.4,0.3c2.5,0.5,4.5,1.5,6.3,2.7c1.9,1.4,2.9,3,2.9,4.6c0,0.5-0.2,1.1-0.7,1.8v-1.5c-2.8,0.4-5,0-6.8-1.2l-5.8-5.3
		l0.4-0.7l0.1-0.1l0.1-0.4L-69.8-14.1 M-61-35.4c-1.6,0.4-3.4,1.2-5.4,2.6c-0.5-1.1-0.5-2,0.1-2.9c0.4-0.5,1.2-1.2,2.5-2
		c2.2-1.4,3.6-2.8,4.1-4.1C-59.4-37.8-59.9-35.6-61-35.4 M-50.5-51.4c0,0.4-0.2,0.8-0.4,1.2c-0.3,0.5-0.5,0.7-0.8,0.7
		c-0.4,0-0.9-0.3-1.3-0.9c-0.5-0.6-1-0.9-1.4-0.9l-2.3,0.4c-0.9,0.3-2,1.3-3.4,3.1l0-1c0-1.3,0.2-2.3,0.5-2.9
		c0.4-0.6,1.2-1.4,2.5-2.3c0.4-0.3,0.8-0.4,1.3-0.4l1.5,0c0.4,0,0.8-0.2,1.3-0.6c0.5-0.5,0.9-0.7,1.1-0.7c0.5,0,0.8,0.1,1.1,0.4
		c0.3,0.3,0.5,0.6,0.4,1.1C-50.6-52.4-50.6-51.5-50.5-51.4 M-39.4-51.6c-1,0.6-1.6,0.9-1.8,0.9c-0.7,0-1.2-0.4-1.4-1.1l-0.2-2.4
		c0-2.3-0.8-3.4-2.4-3.4c-0.6,0-1.6,0.5-3.2,1.5c0-1.8,0.1-2.8,0.3-3.1c1-1.6,1.7-2.5,2.1-2.8l2.8-0.3h0.5c1.3,0,2.1,0.3,2.5,0.6
		c0.5,0.5,1,1.7,1.4,3.8l1.6,0.4c-0.2,0.8-0.4,1.4-0.4,2c0,1.2,0.8,1.7,2.4,1.6c0.8,0,1.6,0.2,2.6,0.8
		C-36.2-52.6-38.5-52.1-39.4-51.6 M1.3,1.1c0.7-0.3,1.5-0.6,2.5-0.9c1.8-0.9,2.7-2.1,3-3.6C6.8-4,7-4.4,7.1-4.6c0.3-0.3,1-0.4,2-0.4
		c1.8,0,3.1,0.4,4,1.1c0.6,0.5,1.2,1.5,1.7,2.8c0.6,1.6,1.1,2.7,1.5,3.3c0.8,1.2,2,2.1,3.6,2.8c-2.2,0.4-4.2-0.5-6.2-2.8
		C11.8-0.3,7.6-0.6,1.3,1.1 M-58-34l0.7-2.6l1.4-4.5h3.9v3h4.3c0-0.4,0.2-0.9,0.7-1.7c0.5-0.7,0.7-1.4,0.7-1.9l-0.1-0.5l-0.9-0.4
		c0.9-0.8,1.7-1.6,2.3-2.6c0.5-0.6,1.3-0.9,2.3-0.9c0.5,0,1.1,0.3,1.7,0.9c0.7,0.7,0.7,1.4,0.1,2.2c0.1,0,0.3,0.1,0.3,0.2l-0.1,0.1
		l-1.9,2.3c-2.5,2.9-4.6,4.3-6.4,4.3c-1.3,0-2.3-0.2-3-0.7c-0.7-0.5-1.1-0.7-1.1-0.7l-2.9,2.3L-58-34 M-20.4-38.4
		c-2-2-5.4-2.9-10.4-2.7c0.2-0.5,0.8-1.1,1.8-1.6l1.5-0.6l0.9-0.2C-22.9-43.1-20.8-41.4-20.4-38.4 M-6-33.8
		c-4.5-0.1-7.6-2.3-9.1-6.7c-1.5-4-4.8-6.2-10.1-6.4h5c3.7,0.5,6.3,2.5,7.7,6c0.8,2,1.3,3.1,1.6,3.5c0.7,1,1.7,1.5,3,1.5
		c0.2,0,0.7-0.2,1.4-0.6S-5.1-37-4.6-37c1,0,1.8,0.4,2.3,1.1c0.5,0.7,0.7,1.6,0.7,2.7c0,0.8-0.4,1.4-1.3,1.8s-1.3,1.4-1.3,2.7
		c0,1.5,0.1,2.3,0.2,2.6c0.4,0.6,1.4,0.8,3,0.5C-1.1-24.7-1-24-0.6-23.4C-5.8-24.2-7.6-27.6-6-33.8 M-42.3-49.6l-0.1-0.5L-42.3-49.6
		L-42.3-49.6 M-47.1-32.2c0.7-0.7,1.6-1.4,2.6-1.9c1.5-0.9,2.9-1.3,4.2-1.3c1.5,0,2.9,0.6,4.1,1.9c1.2,1.2,1.8,2.6,1.8,4
		c0,1-0.2,1.7-0.5,2.1s-0.5,0.9-0.5,1.5s0.7,1,2,1.5c1.3,0.5,2,1.2,2,2.3c0,1.3-1.1,2.1-3.2,2.2c0.4-2.2-0.8-4-3.7-5.6
		C-37-32.6-39.8-34.9-47.1-32.2 M-48-26.2c3.3-0.4,4.9,0.5,4.9,2.6c-1.4-1.3-3.3-1.4-5.8-0.4l-0.1-0.1C-48.5-24.3-48.1-25-48-26.2
		 M-47.6-1.8c0.1-0.6,0.5-1,1.1-1.1c0.8-0.1,1.3-0.5,1.3-1.1l-0.2-2.3c-0.1-0.9,0-1.5,0.2-1.9l2.3-3.3c0.8-1,1.9-1.9,3.4-2.8h5.4
		v1.5c2.8-0.9,4.4-0.4,4.9,1.5l0.7,2.8c0.3,0.9,0.8,1.6,1.4,2.2c-2.5-2-5.7-3.6-9.5-4.9c-3.8-1.2-5.6,0.7-5.3,5.8
		C-41.5-0.3-43.5,0.9-47.6-1.8 M-25.9-24.8c0.4-0.4,0.9-0.6,1.4-0.8c1.6-0.5,3.1-1.2,4.3-2c0.6-0.5,1.9-0.7,3.8-0.7
		c1.1,0,1.8,0.3,2.3,0.8c0.5,0.5,0.7,1.4,0.7,2.6c0,0.1-0.2,0.6-0.5,1.3l-0.5,1.4l1.8,4.7c0,1.4-1.9,2.1-5.7,2.1
		c4.4-0.9,4.7-2.9,1-6C-15.5-26.6-18.3-27.7-25.9-24.8 M-21.8-3.3l-0.1-0.5c0-1.6,0.6-2.8,1.8-3.6c1-0.8,2.4-1.1,4.1-1.1l1.7,0.1
		c0.4,0.2,0.5,0.8,0.3,1.8h3.6c0.5-2.1,0.8-3.3,1.1-3.5l3.1-0.3c1.3,0,2.5,0.8,3.6,2.3c1,1.4,1.4,2.7,1.4,3.9c0,0.4-0.4,1-1.1,1.7
		c-1.4-6.1-3.8-6.7-7.2-1.8C-17.3-7-21.4-6.7-21.8-3.3"/>
	<path class="st1" d="M-60-1.8l0.4-0.5l1.6-1.3v-1.1c0.5-0.6,0.7-1.2,0.7-1.8c0-1.7-1-3.2-2.9-4.6c-1.7-1.3-3.8-2.2-6.3-2.7
		l-3.4-0.3l-0.1,0.3c0.1-0.2,0.1-0.9,0.1-2c0-1.1,0-1.6-0.1-1.4c-0.1,0.1-0.2,0-0.4-0.3c-0.2-0.3-0.3-0.6-0.3-0.9
		c0-1.2,0.2-2.3,0.7-3.4c0.6-1.3,1.3-1.9,2.1-1.9l0.1,0l0.4-0.8c0.4-0.5,0.5-0.9,0.5-1.4c0-1.4-0.5-2.3-1.4-2.9
		c-1-0.6-1.4-1.2-1.4-1.9c0-0.4,0.4-0.9,1.3-1.4c0.8-0.5,1.4-0.8,1.7-0.8c2-1.4,3.8-2.2,5.4-2.6c1.1-0.3,1.6-2.4,1.3-6.4
		c0.2-0.4,0.3-0.8,0.3-1.3c0-0.9-0.1-1.8-0.4-2.8l-0.3-1.9c1.3-1.7,2.4-2.8,3.4-3.1l2.3-0.4c0.5,0,1,0.3,1.4,0.9
		c0.5,0.6,0.9,0.9,1.3,0.9c0.3,0,0.5-0.2,0.8-0.7c0.2-0.4,0.4-0.8,0.4-1.2c-0.1-0.1-0.1-1,0.2-2.7c1.4-0.2,2-0.9,2-2.1
		c1.6-1,2.6-1.5,3.2-1.5c1.6,0,2.4,1.1,2.4,3.4l0.2,2.4c0.2,0.7,0.7,1.1,1.4,1.1c0.2,0,0.8-0.3,1.8-0.9c0.9-0.5,3.2-1,6.9-1.5
		c1,0.6,2.2,1.6,3.4,2.9c1.1,0,2-0.4,2.5-1c0.4-0.5,0.7-1,0.7-1.7c0.3,0.3,0.8,0.6,1.3,0.8c1.5,0.6,3,1.2,4.5,1.7l0.9,0.6
		c0.5,0.9,1.8,1.9,4.2,3.2c2,1.1,3.4,1.7,4.3,1.8l0.6,0.8H-8c-0.8-0.8-0.8-1.4,0-1.8l1.2-1.1c0.6-0.2,1.3-0.6,2-1.1l1.9-1.3
		c8.5,0.9,14.2,1.6,17.1,2.2l0,0h0.3c0.7,0,2-0.3,3.9-0.8v-1.9L17-51.3c-0.2-0.3-0.3-0.6-0.3-1.1c0-0.7,0.1-1.4,0.2-2l0.2-0.1
		c1.7-1.1,2.8-1.7,3.3-1.7c2.5,0,4.3,0.2,5.5,0.7l2.4,0.8c0.7,0.2,0.8,0.2,0.1-0.2c1-0.2,1.8-0.8,2.4-1.9l0.4-0.7h1.9L33-60.2
		l0.3-1.3c1.3,0.1,2.9-0.1,4.8-0.6l-0.2,3.4c-0.1,1.4-0.2,2.6-0.1,3.4c0.2,3,2.3,4.6,6.4,4.9l4.2,0.3c1.3,0.2,1.9,0.8,1.9,1.8
		l-0.2,0.8l-0.2,0.2c-2.6-0.1-4.4,0.5-5.2,1.6c-0.3,0.5,1.5,1.2,5.4,2.3c1.3,0.4,2.2,0.8,2.9,1.2c0.8-0.5,1.2-1.3,1.2-2.3
		c0-4.1-2.2-6.6-6.6-7.5L43-52.8c-1.4-0.4-2.1-1-2.1-2c0-0.2,0.2-0.8,0.5-1.9c0.4-1,0.5-1.9,0.5-2.7c1.7,0.4,2.6,0.3,2.7-0.5
		c1.9,0,3.3-0.6,4.4-1.6c1-1,2-1.5,2.8-1.5c0.9,0,1.5,0.3,1.8,0.7l0.2,1.3l-0.2,1.4l-0.3,1.4c0,0.6,0.3,1.1,0.8,1.3l1.7,0.1
		c-0.1,1.2,0.5,1.8,1.8,2l3.2,0.6c0.6,0.4,1.3,1.4,1.9,2.9c0.6,1.4,0.9,2.4,0.9,3.2c0,1.1-0.7,1.8-2,1.9v1.1
		c0.5,0.5,0.7,1.2,0.6,2.1L62-40.8c0,0.9,0.3,1.4,1,1.4c0.7,0.1,1,0.5,1,1.4l-0.2,0.7l-0.2,0.7c0,0.7,0.6,1.5,1.9,2.4
		c1.2,0.9,2.2,1.3,3.1,1.5c2.9,0.5,4.3,1.8,4.3,3.9c0,0.1-0.5,0.6-1.4,1.4c-1,0.8-1.4,1.4-1.4,1.8c0,0.4,0.1,0.8,0.4,1.4
		c0.3,0.6,0.6,0.9,0.8,1v1.7l-0.9,0.2c-0.5,0.2-1.3,0.9-2.5,2l-1.8-2.3c-0.5-0.7-1.5-1.1-2.7-1.1l-0.3-3.9c-0.2-2-0.7-4.3-1.5-7.1
		c-0.2-0.9-1.2-1.7-2.8-2.3l-1.8-0.5c0.1,0.3,0,0.7-0.4,1.1c-1.1,1.4-0.8,2.9,0.8,4.6c-0.9,0.8-1.3,1.8-1.3,3
		c0.1,1.3,0.1,2.2,0.1,2.6c-0.2,1-0.7,2-1.6,3l-2.5-5.5L52-27.5c-1.4-0.4-2.5-0.7-3.1-1l-0.8-3.2l-0.8-3c-1.8-1.1-2.9-1.9-3.1-2.3
		l-2.7-3.1l-1.9-0.2l-1.9-2.2l0.2-0.3l-0.3,0.2L37.4-43l0-0.1c-1.1-1.6-1.5-2.7-1.1-3.4c0.4-0.7,0.7-1.3,0.8-1.9l-0.3-0.2l0-0.2
		c-2.2,0.6-3.8,0.3-4.6-0.7l-1-1.3c-0.4-0.4-0.8-0.6-1.4-0.6c-0.6,0-1.2,0.7-1.9,2.1L27.6-49l0.1,0.1c1,1,2.1,1.5,3.5,1.6
		c1.3,0.1,1.8,0.8,1.5,2.1c-0.4,1.3-1,2.6-1.9,3.9l2.1,1.9l-0.5,0.6l-0.1,0.3C32.1-38,32-37.1,32-35.8l0.1,3.1l0.7-0.4l1-1.5
		c0.5-0.8,1.3-1.4,2.3-1.8l3-0.4c2.4,2,3.6,3.3,3.6,3.8c-0.4,2.3-0.5,3.8-0.3,4.4c0.1,0.4,2.1,2.4,5.8,6.2c-1.5,1.1-2.5,2.1-2.9,2.8
		c-0.3,0.5-0.5,1.2-0.5,2.1c0,0.6,0.1,1.2,0.3,1.8c0.4,1.1,1.3,1.6,2.5,1.6c1.1,0,2.1-0.3,3-1l2.7-2.2l0,0.2c0.2,0.4,0.6,0.7,1,0.9
		l0.5,0.3l0.2-0.3c1.3-1.4,2.9-1.6,4.8-0.5l0-2.4c0.7,0.3,1.4,0.8,1.9,1.4c0.9,1.1,1.4,1.7,1.6,1.7c0.2,0,0.6,0.3,1.3,0.8l2.1,1.4
		c-1.9,2-2.7,3.9-2.4,6c-1.1,0.6-2.1,1.6-3,3.1l-1.8,2.5l-1.1-1.7l-0.3-0.4h-1.5V-5l0-0.4l-0.7,0c-1,0-1.7,0.3-2.1,1l-0.8,0.9
		l-1.4-0.6c-1-0.4-2.6-0.6-4.6-0.6l-1.1,0l-0.3-2.1c-0.2-1.1-1.1-2.5-2.6-4.1c-1.5-1.6-3.1-2.8-4.5-3.8c-1.5-0.9-2.8-1.3-4-1.1
		l-1.3,0.3c-1.6,0.5-2.4,1.6-2.4,3.2l0.3,1.6c0.5,1.1,1.3,1.7,2.6,1.7c2.4,0,4,0.2,4.9,0.6c1,0.5,1.4,1.4,1.4,2.7L39.5-2
		c-0.5,1.8-0.7,3.2-0.7,4.4c0,0.4,0.2,1.7,0.5,3.9c-0.1,2.1-1.2,3.1-3.4,3.1c-0.4,0-1.4-1-3-3c-1.7-2-3.4-3.1-5.2-3.1
		c-1.5,0-2.6,0.4-3.1,1.3c-0.3,0.5-0.5,1.3-0.5,2.3c0,1.1,0.6,1.9,1.7,2.4c1.5,0.7,2.7,1.8,3.5,3.4l0.7,1.3c-1.7-1.6-2.8-3-3.4-4.1
		h-2.9c-0.5,0.5-0.9,1.1-1.3,1.7c-0.5-0.9-1-1.6-1.6-2.1c-1.9-1.6-2.9-0.3-2.9,4.1c-1.4-0.5-2.6-0.3-3.4,0.6c-1.1,1.2-1.9,1.9-2.4,2
		l-0.5-1.3c-0.5-0.6-1.5-0.9-2.9-0.9c-0.8,0-1.8,0.3-3.1,0.8c-0.1-0.1-0.3-1-0.6-2.7c-0.2-1.3-1.1-1.9-2.7-1.9c-1,0-1.7,0.3-2.2,0.9
		c-0.5-0.9-1.4-1.3-2.6-1.3c-0.2,0-1.2,0.5-3,1.5c-2.1,1.2-3.5,2.2-4.4,3l-3.1,2.4c-1.1,0.8-1.6,1.5-1.6,2l-1.4,0.1l-1-3.9
		c-0.4-1.8-0.9-3.1-1.4-3.9c-2.3-1.8-4.5-2.7-6.6-2.7l-0.6,0.1l-0.9-0.5C-28.7,7-30.5,6.1-31.8,5c-1.3-0.7-2.9,0-4.9,2.1
		c-2.2,2.3-3.6,3.4-4,3.4l-1.4-1.1c-0.7-0.6-1.4-1-2.3-1.1V7.8V7.3c0-1.5-1.3-3.3-3.8-5.2c-3-2.4-6.5-3.6-10.4-3.5l1.1-0.2L-60-1.8
		 M63.1-22.5l-3,0.4L63.1-22.5 M44.1-1.9l-1,1.9C43.1-0.8,43.5-1.4,44.1-1.9 M43.2,6.9L43.3,6L43.6,6L43.2,6.9 M58.9,4.1l0-0.3h0.4
		C59.1,3.9,59,4,58.9,4.1 M70.4-8.6L70.4-8.6l0.2-0.1L70.4-8.6L70.4-8.6 M4.3-42.6l0.5,0.4l3.9,1.5c3.8,1.3,5.7,3,5.8,5.1
		c-0.5,2.8-0.6,4.9-0.4,6.5c0.4,2.9,2.3,4.3,5.8,4.3c1.3,0,2.3-0.7,3-2.1c0.6-1.1,0.9-2.1,0.9-3.1v-0.4c-1.7-0.7-3-1.6-4-2.5
		c-0.9-0.9-1.3-1.4-1.3-1.6c0-0.3,0.1-0.8,0.4-1.5l0.4-1.5c0-1.2-1.1-2.7-3.2-4.4c-1.9-1.5-3.2-2.3-3.9-2.3c-2.6,0-4.9,0.4-6.8,1.1
		L4.3-42.6 M27.6-48.8l0.1-0.2l-0.3,0.2l0.1,0.2L27.6-48.8 M24.2-8.5l-1.4-1.1C22.3-10,22-10.5,22-11.1c0-0.3,0.1-0.6,0.4-1.1
		l0.4-1.1c0-0.8-1.2-2.2-3.6-4.2s-4-3-5-3c-0.9,0-1.7,0.5-2.5,1.5c-0.7,1-1.1,1.9-1.1,2.8l0,1.1c3-3.4,5.2-3.3,6.6,0
		C18.7-11.8,21-9.6,24.2-8.5 M7.6-11.4l-1.3-0.9c-0.5-0.5-1.3-1.4-2.3-2.9c-2.1-2.9-4.2-4.4-6.3-4.4c-1,0-2,0.3-3,0.8l-3,1.5
		c3.9-1.1,6.5-0.7,8,1.4C1-13.9,3.7-12.4,7.6-11.4 M41.8,15.6c0.7-1.3,1.4-2.9,2-4.8l0.1,0.7C43.8,13.2,43.1,14.5,41.8,15.6 M13.7,2
		c2,2.3,4,3.2,6.2,2.8c-1.5-0.6-2.7-1.6-3.6-2.8c-0.4-0.6-0.9-1.7-1.5-3.3c-0.5-1.3-1.1-2.2-1.7-2.8c-0.9-0.7-2.2-1.1-4-1.1
		c-1,0-1.7,0.1-2,0.4C7-4.4,6.8-4,6.8-3.4c-0.2,1.5-1.2,2.8-3,3.6c-1,0.3-1.8,0.6-2.5,0.9C7.6-0.6,11.8-0.3,13.7,2 M-55.9-35.4
		l2.9-2.3c0,0,0.4,0.2,1.1,0.7c0.7,0.5,1.7,0.7,3,0.7c1.8,0,3.9-1.4,6.4-4.3l1.9-2.3l0.1-0.1c-0.1-0.1-0.2-0.2-0.3-0.2
		c0.7-0.8,0.6-1.5-0.1-2.2c-0.6-0.6-1.2-0.9-1.7-0.9c-1,0-1.8,0.3-2.3,0.9c-0.7,1-1.4,1.8-2.3,2.6l0.9,0.4l0.1,0.5
		c0,0.5-0.2,1.2-0.7,1.9c-0.5,0.8-0.7,1.3-0.7,1.7h-4.3v-3h-3.9l-1.4,4.5L-58-34L-55.9-35.4 M-26.6-43.4l-0.9,0.2l-1.5,0.6
		c-1,0.5-1.6,1-1.8,1.6c5-0.2,8.4,0.7,10.4,2.7C-20.8-41.4-22.9-43.1-26.6-43.4 M-0.6-23.4C-1-24-1.1-24.7-0.9-25.6
		c-1.6,0.3-2.6,0.2-3-0.5c-0.1-0.2-0.2-1.1-0.2-2.6c0-1.4,0.4-2.3,1.3-2.7s1.3-1.1,1.3-1.8c0-1.1-0.2-2-0.7-2.7
		C-2.8-36.6-3.6-37-4.6-37c-0.5,0-1.1,0.2-1.8,0.6s-1.2,0.6-1.4,0.6c-1.3,0-2.3-0.5-3-1.5c-0.3-0.4-0.8-1.5-1.6-3.5
		c-1.5-3.5-4-5.5-7.7-6h-5c5.3,0.2,8.7,2.3,10.1,6.4c1.5,4.4,4.6,6.6,9.1,6.7C-7.6-27.6-5.8-24.2-0.6-23.4 M-42.3-49.6l-0.1-0.5
		L-42.3-49.6L-42.3-49.6 M-38.5-25.5c2.9,1.5,4.1,3.4,3.7,5.6c2.1-0.2,3.2-0.9,3.2-2.2c0-1.1-0.7-1.9-2-2.3c-1.3-0.5-2-1-2-1.5
		s0.2-1,0.5-1.5s0.5-1.2,0.5-2.1c0-1.4-0.6-2.7-1.8-4c-1.2-1.3-2.6-1.9-4.1-1.9c-1.3,0-2.7,0.4-4.2,1.3c-1,0.6-1.9,1.2-2.6,1.9
		C-39.8-34.9-37-32.6-38.5-25.5 M-49.1-24l0.1,0.1c2.5-1.1,4.4-1,5.8,0.4c0-2.1-1.6-3-4.9-2.6C-48.1-25-48.5-24.3-49.1-24
		 M-41.9-5.4c-0.3-5,1.5-7,5.3-5.8c3.8,1.2,7,2.9,9.5,4.9c-0.6-0.6-1-1.3-1.4-2.2l-0.7-2.8c-0.5-1.9-2.2-2.4-4.9-1.5v-1.5h-5.4
		c-1.5,0.9-2.6,1.8-3.4,2.8l-2.3,3.3c-0.3,0.4-0.3,1-0.2,1.9l0.2,2.3c0,0.6-0.5,1-1.3,1.1c-0.6,0.1-1,0.5-1.1,1.1
		C-43.5,0.9-41.5-0.3-41.9-5.4 M-17.4-21.3c3.7,3.1,3.4,5.1-1,6c3.8,0,5.7-0.7,5.7-2.1l-1.8-4.7l0.5-1.4c0.4-0.7,0.5-1.2,0.5-1.3
		c0-1.2-0.2-2.1-0.7-2.6c-0.5-0.5-1.3-0.8-2.3-0.8c-1.9,0-3.1,0.2-3.8,0.7c-1.2,0.8-2.6,1.5-4.3,2c-0.6,0.2-1,0.4-1.4,0.8
		C-18.3-27.7-15.5-26.6-17.4-21.3 M-9.5-4.2c3.4-5,5.8-4.4,7.2,1.8c0.7-0.8,1.1-1.3,1.1-1.7c0-1.3-0.5-2.6-1.4-3.9
		c-1.1-1.5-2.3-2.3-3.6-2.3l-3.1,0.3c-0.3,0.3-0.7,1.4-1.1,3.5h-3.6c0.2-1,0.1-1.6-0.3-1.8L-16-8.5c-1.7,0-3.1,0.4-4.1,1.1
		c-1.2,0.8-1.8,2-1.8,3.6l0.1,0.5C-21.4-6.7-17.3-7-9.5-4.2"/>
	<path class="st2" d="M67.9-19.1l-1.8-2.3c-0.5-0.7-1.5-1.1-2.7-1.1h-0.3l-3,0.4C60-22,60-21,59.9-19.3 M58.1-4.7h-1.5V-5l0-0.4
		 M34.6-15.6c2,0.2,4.1,1.2,6.4,3c3.1,2.4,4.6,5,4.6,7.9v0.1c0,1.3-0.4,2.2-1.3,2.6l-0.2,0.1c-0.7,0.4-1,1.1-1,1.9l0,0.7L43.5,1
		l-0.1,5 M43.6,6l1-1.5l2.1-2.4h3.2l1.3,3.2c0.7,1.4,1.5,2.1,2.4,2.1c1.1,0,2.2-0.5,3.2-1.5l0.3-0.3l1.6-1.5 M58.9,4.1
		C59,4,59.1,3.9,59.2,3.8c0.2-0.2,0.3-0.3,0.5-0.4l0.2-0.2l0,0c0.6-0.4,1-0.7,1.1-1.2l1-2.2l2.3-0.4c1.1-0.1,1.8-1.5,2.3-4.2v1.1
		h2.9C68.7-5.4,69-7,70.4-8.6 M70.6-8.8l1.7-1.9c0.6-0.7,0.9-1.4,0.9-2.2L73-14.4c0.4-0.2,0.8-0.4,1.1-0.6c1.3-0.8,1.9-1.8,1.8-3
		c-0.1-2.1,0.4-3.4,1.6-3.9c1.3-0.5,1.9-1.7,1.9-3.7c0-1.5-0.4-2.9-1.3-4.2c-1.1-1.5-2-2.9-2.7-3.9c-0.5-0.8-0.8-2-0.9-3.9
		c-0.1-1-0.8-1.5-2-1.5h-2.1c-0.9-0.1-2.5-1.4-4.8-4c-0.2,0.3-0.3,0.6-0.3,1c0,2.1,1.4,3.8,4.1,4.9 M48.6-64.5
		c-0.5-1-0.2-2.1,1.1-3.1l0.6-0.5c1.1-0.8,2.3-1.1,3.7-1.1c0.8,0,1.6,0.4,2.4,1.1l0.8,1c1,1.3,1.4,2.7,1.4,4l-0.3,2l-0.3,1.6
		c0,0.8,0,1.3,0.1,1.5c0.1,0.4,0.5,0.5,1.1,0.3c0.1,0.8,1,1.1,2.7,0.9c2-0.2,3.4,0.2,4,1.2c0.6,0.8,1.1,2.7,1.5,5.7l0.5,4.3
		c0,0.5-0.4,1.1-1.3,1.7c-0.5,0.3-0.8,0.6-1,1 M33.3-61.5L33-60.2l0.1,2.8h-1.9h-0.6L28-60.3l-3.3-0.2c-2.5,0-4.4,0.7-5.9,2.3
		c-1,1-1.6,2.2-1.9,3.6l0,0.2c-0.1,0.6-0.2,1.3-0.2,2c0,0.5,0.1,0.8,0.3,1.1l1.5,1.4v1.9c-1.9,0.5-3.2,0.8-3.9,0.8h-0.3
		c-1.3-0.2-3.6-1.1-6.9-2.7c-3.6-1.8-6.7-2.6-9.4-2.6c-1,0-1.8,0.9-2.5,2.8l0,0.1l0,0.1c-0.3,0.6-0.6,1.2-1,1.6l-0.9,0.7l0,0l-0.1,0
		l0,0L-8-45.9c-0.8,0.4-0.8,1,0,1.8h-2.1l-0.6-0.8 M-32.5-53.1c1,0.6,2.2,1.6,3.4,2.9l-3.6-0.5c-1.9-0.3-3.1,0.2-3.7,1.4
		c-0.6,1.1-0.6,2.4,0.2,3.7 M33.3-61.5l0.2-0.4l0.7-0.7l0.3-0.1c1-0.3,2-0.8,3.1-1.5l1.5-0.8c1.3,0,2.1,0.6,2.5,1.9
		c0.2,0.7,0.4,2,0.4,3.8c1.7,0.4,2.6,0.3,2.7-0.5 M42-59.3c0,0.8-0.2,1.7-0.5,2.7c-0.4,1-0.5,1.6-0.5,1.9c0,1,0.7,1.6,2.1,2l4.5,0.8
		c4.4,0.9,6.6,3.3,6.6,7.5c0,1-0.4,1.8-1.2,2.3 M32.9-39.4c0.8-0.7,2.4-1,4.7-1l2,0l-1.9-2.2l-0.1-0.1L37.4-43l0-0.1
		c-1.1-1.6-1.5-2.7-1.1-3.4c0.4-0.7,0.7-1.3,0.8-1.9l-0.3-0.2l0-0.2c-2.2,0.6-3.8,0.3-4.6-0.7l-1-1.3c-0.4-0.4-0.8-0.6-1.4-0.6
		c-0.6,0-1.2,0.7-1.9,2.1L27.6-49l-0.1,0.2 M23.8-30.4c-1.7-0.7-3-1.6-4-2.5c-0.9-0.9-1.3-1.4-1.3-1.6c0-0.3,0.1-0.8,0.4-1.5
		l0.4-1.5c0-1.2-1.1-2.7-3.2-4.4c-1.9-1.5-3.2-2.3-3.9-2.3c-2.6,0-4.9,0.4-6.8,1.1l-0.9,0.4c-2,1.1-3,2.6-3,4.5
		c0,1.4,0.4,2.3,1.3,2.7c0.8,0.4,1.3,1.1,1.3,2c0,1,0,1.5-0.1,1.6l-2,0.5v6.1h1.1 M27.5-48.6l-0.4,1c-1,2.4-1.4,4.2-1.4,5.5
		c0,0.5,0.3,1,0.8,1.8c0.5,0.8,1.2,1.4,2,1.6 M32.9-39.4l-0.5,0.6l-0.1,0.3C32.1-38,32-37.1,32-35.8l0.1,3.1l0,1.4
		c-2.5,0.2-4,0.4-4.4,0.7c-0.6,0.5-1,1.7-1,3.8c0,1.2,0,1.8,0.1,2c0.2,0.3,0.7,0.5,1.7,0.7v3.8h-2.1 M24.2-8.5l-1.4-1.1
		C22.3-10,22-10.5,22-11.1c0-0.3,0.1-0.6,0.4-1.1l0.4-1.1c0-0.8-1.2-2.2-3.6-4.2s-4-3-5-3c-0.9,0-1.7,0.5-2.5,1.5
		c-0.7,1-1.1,1.9-1.1,2.8l0,1.1l0.1,0.5l2,1.3v3.8c-0.7-0.1-1.3,0.1-2,0.4c-0.7,0.4-1.4,0.7-2,0.7 M7.6-11.4l-1.3-0.9
		c-0.5-0.5-1.3-1.4-2.3-2.9c-2.1-2.9-4.2-4.4-6.3-4.4c-1,0-2,0.3-3,0.8l-3,1.5v2.2l0.5,0.2l0.5,0.2v1.5h-1.1 M34.6-15.6l-0.9-0.1
		c-0.9,0-1.5,0.2-1.9,0.7c-0.4,0.5-1.2,0.8-2.2,0.8v5.7c-2.4,0.5-4.1,1.1-4.9,1.7c-1.9,1.3-2.5,3.4-1.9,6.2h-1.4 M54.7-21.9
		c-0.8-3.1-1.6-4.9-2.5-5.5L52-27.5c-1.4-0.4-2.5-0.7-3.1-1c-1.1-0.6-1.4-1.6-0.9-3.2h0c0.9-0.9,0.7-1.9-0.8-3
		c-1.8-1.1-2.9-1.9-3.1-2.3c-1.2-1.8-2.1-2.9-2.7-3.1l-1.9-0.2 M54.9-16.1l0.2-0.3c1.3-1.4,2.9-1.6,4.8-0.5l0-2.4 M30,13.9l0.8,0.8
		c2.2,2,3.8,3.1,4.8,3.1c1.9,0,3.7-0.5,5.4-1.5l0.1,0l0.7-0.5 M43.8,10.9L43.8,10.9l-0.2-1l-0.1-0.3c-0.2-1-0.4-1.7-0.4-2
		c0-0.2,0-0.5,0.1-0.7L43.3,6 M50.3-15.7c0.2-1.8,1.1-2.7,2.5-2.8l0.4-0.1h0.1c0.5-0.1,0.8-0.2,1-0.3c0.4-0.4,0.6-1.1,0.6-2.1
		l-0.1-0.4 M54.9-16.1c-0.6,0.7-1,1.5-1.2,2.4c-0.2,0.6-0.3,1.2-0.3,1.9c0,1.3,0.1,2.2,0.4,2.6c0.2,0.2,0.5,0.4,1,0.4
		c0.9,0.1,1.5,1.2,1.7,3.3 M63.4-22.5l-0.3-3.9c-0.2-2-0.7-4.3-1.5-7.1c-0.2-0.9-1.2-1.7-2.8-2.3 M70.6-8.8l-0.1,0.1l-0.1,0.1
		 M58.1-4.7h0.7 M43.6,6l-0.4,0.9 M43.8,10.9l0.1,0.7c0,1.6-0.7,2.9-2.1,4 M30,13.9c-1.7-1.6-2.8-3-3.4-4.1h-2.9
		c-0.5,0.5-0.9,1.1-1.3,1.7l-0.5,0.9c-0.5,1.2-0.5,2.1,0,2.7v3c-1.5,0.8-3,1.9-4.3,3.3c-0.6,0.6-1.9,0.9-3.9,0.9
		c-1.8,0-3.2-0.7-4-2.3c-0.9-1.5-1.5-2.3-1.9-2.3c-0.3,0-1,0.2-2,0.6l-1.6,0.6c-0.7,0-1.2-0.3-1.6-0.8c-0.5-0.6-1.1-1-1.8-1.1V15
		l0.4-0.8l0.4-0.8v-2.3h-2.1l-1.4,3.9c-0.8,2-1.6,3.3-2.5,3.7l-3.8,2.3c-0.9,0.5-2,0.8-3.2,0.8l-1.7-0.1c-0.4-0.2-0.5-0.8-0.3-1.8
		l-1.5,0.5l-1.7,0.2c-0.7,0-1.9-0.6-3.6-1.9c-1.7-1.3-2.5-2.2-2.5-2.7l0.5-1.3c0.4-0.8,0.5-1.4,0.5-1.9c0-1.2-0.1-1.9-0.2-2.1
		c-0.3-0.3-1.4-0.4-3.4-0.4c-0.5,0-1-0.4-1.4-1.3l-0.3-0.4c-0.4-0.6-0.9-0.9-1.4-0.9c-0.6,0-1.4,0.5-2.4,1.4c-1,0.9-2.6,1.3-5,1.3
		c-0.7,0-1.8,0.4-3.2,1.3c-1.4,0.9-2.7,1.4-3.8,1.4l-1.4-0.3l-1.3-1.2c0-0.3,0.2-0.6,0.7-1.1V8.2V7.8l-6.8-0.8
		c-2.2-0.6-3.7-2.1-4.3-4.6L-59.6,2c-0.6-0.1-0.9-0.9-0.9-2.4c0-0.6,0.2-1.1,0.5-1.5l0.4-0.5l1.6-1.3v-1.1 M-58-6.2
		c-2.8,0.4-5,0-6.8-1.2l-5.8-5.3l0.4-0.7l0.1-0.1l0.1-0.4c0.1-0.2,0.1-0.9,0.1-2c0-1.1,0-1.6-0.1-1.4 M-70.3-17.5
		c-0.2-0.3-0.3-0.6-0.3-0.9c0-1.2,0.2-2.3,0.7-3.4c0.6-1.3,1.3-1.9,2.1-1.9l0.1,0l0.4-0.8c0.4-0.5,0.5-0.9,0.5-1.4
		c0-1.4-0.5-2.3-1.4-2.9c-1-0.6-1.4-1.2-1.4-1.9c0-0.4,0.4-0.9,1.3-1.4c0.8-0.5,1.4-0.8,1.7-0.8c-0.5-1.1-0.5-2,0.1-2.9
		c0.4-0.5,1.2-1.2,2.5-2c2.2-1.4,3.6-2.8,4.1-4.1c0.2-0.4,0.3-0.8,0.3-1.3c0-0.9-0.1-1.8-0.4-2.8l-0.3-1.9l0-1
		c0-1.3,0.2-2.3,0.5-2.9c0.4-0.6,1.2-1.4,2.5-2.3c0.4-0.3,0.8-0.4,1.3-0.4l1.5,0c0.4,0,0.8-0.2,1.3-0.6c0.5-0.5,0.9-0.7,1.1-0.7
		c0.5,0,0.8,0.1,1.1,0.4c0.3,0.3,0.5,0.6,0.4,1.1c1.4-0.2,2-0.9,2-2.1c0-1.8,0.1-2.8,0.3-3.1c1-1.6,1.7-2.5,2.1-2.8l2.8-0.3h0.5
		 M-29.1-50.2c1.1-0.5,2-1.5,2.8-3l0.1-0.1c0.9-1.7,2.1-2.5,3.8-2.5l1.7,0.1c0.4,0.2,0.5,0.8,0.3,1.8c3.1-1.6,5.3-0.9,6.8,2.2
		l1.6,4.2l0.1,0.3c0.4,1,0.8,1.8,1.2,2.4 M1.3,1.1c0.7-0.3,1.5-0.6,2.5-0.9c1.8-0.9,2.7-2.1,3-3.6C6.8-4,7-4.4,7.1-4.6
		c0.3-0.3,1-0.4,2-0.4c1.8,0,3.1,0.4,4,1.1c0.6,0.5,1.2,1.5,1.7,2.8c0.6,1.6,1.1,2.7,1.5,3.3c0.8,1.2,2,2.1,3.6,2.8v2.6 M1.3,1.1
		c-0.4,0.1-0.7,0.3-1,0.4C-1.2,2.3-1.9,3.5-1.9,5c0,0.3,0.1,0.7,0.4,1.1c0.2,0.5,0.4,0.8,0.4,1.1c0,0.5-0.2,0.9-0.5,1.1
		C-2.2,8.5-2.7,8.7-3,9 M-50.5-51.4c-0.1-0.1-0.1-1,0.2-2.7 M-58-34l0.7-2.6l1.4-4.5h3.9v3h4.3c0-0.4,0.2-0.9,0.7-1.7
		c0.5-0.7,0.7-1.4,0.7-1.9l-0.1-0.5l-0.9-0.4c0.9-0.8,1.7-1.6,2.3-2.6c0.5-0.6,1.3-0.9,2.3-0.9c0.5,0,1.1,0.3,1.7,0.9
		c0.7,0.7,0.7,1.4,0.1,2.2c0.1,0,0.3,0.1,0.3,0.2l-0.1,0.1 M-58-34c-0.3,1.1-0.4,1.9-0.4,2.5c0,0.8,0.7,1.8,2.1,3
		c1.4,1.3,2.1,2.3,2.1,3c0,0.6-0.2,1.2-0.7,1.7h-1.8v-1.9h-2.9 M-29.8-32.8l-1.1-1.7c-0.2-0.3-0.4-0.6-0.4-1.1l0.2-2.7l0.2-2.5
		l0.1-0.3c0.2-0.5,0.8-1.1,1.8-1.6l1.5-0.6l0.9-0.2l1.4-3.4h5c3.7,0.5,6.3,2.5,7.7,6c0.8,2,1.3,3.1,1.6,3.5c0.7,1,1.7,1.5,3,1.5
		c0.2,0,0.7-0.2,1.4-0.6S-5.1-37-4.6-37c1,0,1.8,0.4,2.3,1.1c0.5,0.7,0.7,1.6,0.7,2.7c0,0.8-0.4,1.4-1.3,1.8s-1.3,1.4-1.3,2.7
		c0,1.5,0.1,2.3,0.2,2.6c0.4,0.6,1.4,0.8,3,0.5C-1.1-24.7-1-24-0.6-23.4c0.4,0.7,1,0.8,1.8,0.5 M-47.1-32.2c0.7-0.7,1.6-1.4,2.6-1.9
		c1.5-0.9,2.9-1.3,4.2-1.3c1.5,0,2.9,0.6,4.1,1.9c1.2,1.2,1.8,2.6,1.8,4c0,1-0.2,1.7-0.5,2.1s-0.5,0.9-0.5,1.5s0.7,1,2,1.5
		c1.3,0.5,2,1.2,2,2.3c0,1.3-1.1,2.1-3.2,2.2 M-47.1-32.2l-0.5,0.5c-0.4,0.5-0.6,1.2-0.5,2.3l0.2,2.6v0.5c-0.1,1.2-0.5,1.9-1.1,2.2
		l-0.8,0.5c-0.2,0.2-0.3,0.4-0.3,0.6l0.2,0.8l0.2,0.3 M-55.5-7.8l3.1-1.8c1.2-1,1.3-2.3,0.5-3.9l0.4-0.2l0.8-0.2l0.8,0.1
		c0.2,0.2,0.5,0.6,0.8,1.4c0.5-0.2,1.1-0.6,1.7-1.3c0.5-0.5,0.8-0.9,0.8-1c0-0.6-0.3-1.1-1-1.7l-1.5-1 M-47.6-1.8
		c0.1-0.6,0.5-1,1.1-1.1c0.8-0.1,1.3-0.5,1.3-1.1l-0.2-2.3c-0.1-0.9,0-1.5,0.2-1.9l2.3-3.3c0.8-1,1.9-1.9,3.4-2.8h5.4v1.5
		c2.8-0.9,4.4-0.4,4.9,1.5l0.7,2.8c0.3,0.9,0.8,1.6,1.4,2.2 M-47.6-1.8l0,0.5c0,1.2,0.5,2.2,1.4,2.8c1.1,0.7,1.8,1.8,2.1,3.3
		 M-25.9-24.8c0.4-0.4,0.9-0.6,1.4-0.8c1.6-0.5,3.1-1.2,4.3-2c0.6-0.5,1.9-0.7,3.8-0.7c1.1,0,1.8,0.3,2.3,0.8
		c0.5,0.5,0.7,1.4,0.7,2.6c0,0.1-0.2,0.6-0.5,1.3l-0.5,1.4l1.8,4.7c0,1.4-1.9,2.1-5.7,2.1 M-25.9-24.8c-0.7,0.6-1.1,1.3-1.3,2.3
		l-0.1,4.5 M-21.8-3.3l-0.1-0.5c0-1.6,0.6-2.8,1.8-3.6c1-0.8,2.4-1.1,4.1-1.1l1.7,0.1c0.4,0.2,0.5,0.8,0.3,1.8h3.6
		c0.5-2.1,0.8-3.3,1.1-3.5l3.1-0.3c1.3,0,2.5,0.8,3.6,2.3c1,1.4,1.4,2.7,1.4,3.9c0,0.4-0.4,1-1.1,1.7 M-21.8-3.3l0.3,0.6
		c0.2,0.5,0.4,0.8,0.4,1.1s-0.1,0.7-0.4,1.1l-0.4,1.1c0,0.8,0.5,1.6,1.6,2.3c1.1,0.7,1.6,1.3,1.6,1.7l-0.5,0.7
		c-0.4,0.5-0.5,1-0.5,1.4l1.1,1.3 M-26.6-5.9v4.2h-0.7 M-34.4,4.4h-0.4L-35,3.2l-0.2-1.3c0-0.9,0.4-1.6,1.1-2
		c0.8-0.4,1.3-1.2,1.4-2.4"/>
</g>
</svg>
